<svg width="28" height="28" viewBox="0 0 28 28" fill="none" xmlns="http://www.w3.org/2000/svg">
<path d="M5.25001 2.33334C3.64001 2.33334 2.33334 3.64001 2.33334 5.25001V7.96134C2.33396 8.58513 2.50129 9.19743 2.81799 9.73484C3.1347 10.2723 3.58928 10.7153 4.13468 11.018L10.8453 14.749C9.43974 15.4586 8.31443 16.6214 7.65122 18.0495C6.98802 19.4776 6.82566 21.0875 7.19039 22.6193C7.55511 24.151 8.42561 25.5151 9.66123 26.491C10.8969 27.467 12.4254 27.9979 14 27.9979C15.5746 27.9979 17.1032 27.467 18.3388 26.491C19.5744 25.5151 20.4449 24.151 20.8096 22.6193C21.1744 21.0875 21.012 19.4776 20.3488 18.0495C19.6856 16.6214 18.5603 15.4586 17.1547 14.749L23.8677 11.0203C24.413 10.7171 24.8673 10.2736 25.1836 9.73576C25.4999 9.19792 25.6667 8.5853 25.6667 7.96134V5.25001C25.6667 3.64001 24.36 2.33334 22.75 2.33334H5.25001ZM11.6667 12.5347V4.66668H16.3333V12.5347L14 13.832L11.6667 12.5347ZM18.6667 21C18.6667 22.2377 18.175 23.4247 17.2998 24.2998C16.4247 25.175 15.2377 25.6667 14 25.6667C12.7623 25.6667 11.5753 25.175 10.7002 24.2998C9.82501 23.4247 9.33334 22.2377 9.33334 21C9.33334 19.7623 9.82501 18.5753 10.7002 17.7002C11.5753 16.825 12.7623 16.3333 14 16.3333C15.2377 16.3333 16.4247 16.825 17.2998 17.7002C18.175 18.5753 18.6667 19.7623 18.6667 21Z" fill="black"/>
<path d="M3.33334 8.66668H24.7027M6.00001 3.33334H22.036C22.3862 3.33334 22.733 3.40232 23.0565 3.53633C23.38 3.67034 23.674 3.86677 23.9216 4.11439C24.1693 4.36202 24.3657 4.65599 24.4997 4.97952C24.6337 5.30306 24.7027 5.64982 24.7027 6.00001V21.9867C24.7029 22.6594 24.4488 23.3074 23.9913 23.8007C23.5339 24.294 22.9069 24.5962 22.236 24.6467L22.0227 24.6547L5.98668 24.5773C5.28175 24.5738 4.60689 24.2913 4.10967 23.7916C3.61246 23.2919 3.33333 22.6156 3.33334 21.9107V6.00001C3.33334 5.29277 3.6143 4.61449 4.11439 4.11439C4.61449 3.6143 5.29277 3.33334 6.00001 3.33334Z" stroke="black" stroke-width="3" stroke-linecap="round" stroke-linejoin="round"/>
<path d="M8.66668 15.3334C9.40306 15.3334 10 14.7364 10 14C10 13.2636 9.40306 12.6667 8.66668 12.6667C7.9303 12.6667 7.33334 13.2636 7.33334 14C7.33334 14.7364 7.9303 15.3334 8.66668 15.3334Z" fill="black"/>
</svg>
