<svg width="128" height="128" viewBox="0 0 128 128" fill="none" xmlns="http://www.w3.org/2000/svg">
<circle cx="64" cy="64" r="64" fill="#A0EACF" fill-opacity="0.3"/>
<path d="M90.4533 49.6533C90.1827 49.0017 89.6649 48.4839 89.0133 48.2133C88.6927 48.0767 88.3485 48.0042 88 48H74.6667C73.9594 48 73.2811 48.281 72.7811 48.781C72.281 49.2811 72 49.9594 72 50.6667C72 51.3739 72.281 52.0522 72.7811 52.5523C73.2811 53.0524 73.9594 53.3333 74.6667 53.3333H81.5733L66.6667 68.24L57.8933 59.44C57.6454 59.1901 57.3505 58.9917 57.0255 58.8563C56.7006 58.7209 56.352 58.6512 56 58.6512C55.648 58.6512 55.2994 58.7209 54.9745 58.8563C54.6495 58.9917 54.3546 59.1901 54.1067 59.44L38.1067 75.44C37.8567 75.6879 37.6583 75.9828 37.523 76.3078C37.3876 76.6328 37.3179 76.9813 37.3179 77.3333C37.3179 77.6854 37.3876 78.0339 37.523 78.3589C37.6583 78.6838 37.8567 78.9788 38.1067 79.2267C38.3546 79.4766 38.6495 79.675 38.9745 79.8104C39.2994 79.9458 39.648 80.0155 40 80.0155C40.352 80.0155 40.7006 79.9458 41.0255 79.8104C41.3505 79.675 41.6454 79.4766 41.8933 79.2267L56 65.0933L64.7733 73.8933C65.0212 74.1433 65.3162 74.3417 65.6411 74.477C65.9661 74.6124 66.3146 74.6821 66.6667 74.6821C67.0187 74.6821 67.3672 74.6124 67.6922 74.477C68.0172 74.3417 68.3121 74.1433 68.56 73.8933L85.3333 57.0933V64C85.3333 64.7072 85.6143 65.3855 86.1144 65.8856C86.6145 66.3857 87.2928 66.6667 88 66.6667C88.7072 66.6667 89.3855 66.3857 89.8856 65.8856C90.3857 65.3855 90.6667 64.7072 90.6667 64V50.6667C90.6625 50.3182 90.59 49.9739 90.4533 49.6533Z" fill="#A0EACF"/>
</svg>
