<svg width="40" height="40" viewBox="0 0 40 40" fill="none" xmlns="http://www.w3.org/2000/svg">
<circle cx="20" cy="20" r="20" fill="#79E9C0"/>
<path d="M25.4799 14.52C25.7176 14.2324 26.0581 14.0488 26.429 14.0085C26.7999 13.9681 27.172 14.0742 27.4659 14.304C27.6102 14.4158 27.7307 14.5554 27.8202 14.7145C27.9097 14.8737 27.9663 15.0491 27.9869 15.2305C28.0074 15.412 27.9913 15.5956 27.9396 15.7707C27.8879 15.9458 27.8016 16.1088 27.6859 16.25L20.1659 25.49C20.0401 25.6427 19.8839 25.7676 19.7073 25.8568C19.5307 25.946 19.3375 25.9976 19.1399 26.0083C18.9424 26.019 18.7447 25.9886 18.5595 25.919C18.3743 25.8494 18.2055 25.7422 18.0639 25.604L12.4239 20.064L12.3259 19.96C11.8739 19.416 11.9059 18.614 12.4239 18.106C12.9419 17.598 13.7599 17.566 14.3139 18.01L14.4199 18.106L18.9599 22.546L25.4999 14.526L25.4799 14.52Z" fill="black"/>
<rect width="40" height="40" rx="16" fill="#F3E8FF"/>
<path d="M27.7083 20C27.7096 21.012 27.5111 22.0144 27.1243 22.9496C26.7375 23.8848 26.1699 24.7345 25.4541 25.45C24.738 26.1663 23.8877 26.7345 22.9518 27.122C22.0159 27.5095 21.0129 27.7087 20 27.7083C18.9098 27.7107 17.8316 27.4806 16.8375 27.0333L13.615 27.51C13.455 27.5361 13.291 27.5228 13.1373 27.4712C12.9836 27.4195 12.8449 27.3311 12.7331 27.2137C12.6214 27.0963 12.54 26.9533 12.496 26.7973C12.452 26.6413 12.4468 26.4768 12.4808 26.3183L12.9283 23.0492C12.5026 22.0893 12.2856 21.05 12.2916 20C12.2903 18.9879 12.4888 17.9856 12.8756 17.0504C13.2624 16.1151 13.83 15.2654 14.5458 14.55C15.2619 13.8337 16.1123 13.2655 17.0481 12.878C17.984 12.4905 18.987 12.2913 20 12.2917C22.0455 12.2918 24.0072 13.1041 25.4541 14.55C26.1696 15.2657 26.7369 16.1155 27.1237 17.0506C27.5105 17.9858 27.7091 18.988 27.7083 20Z" stroke="#7C3AED" stroke-width="2" stroke-linecap="round" stroke-linejoin="round"/>
</svg>
