<svg width="40" height="40" viewBox="0 0 40 40" fill="none" xmlns="http://www.w3.org/2000/svg">
<circle cx="20" cy="20" r="20" fill="#79E9C0"/>
<path d="M25.48 14.52C25.7177 14.2324 26.0582 14.0488 26.4291 14.0085C26.8001 13.9681 27.1721 14.0742 27.466 14.304C27.6104 14.4158 27.7308 14.5554 27.8203 14.7145C27.9098 14.8737 27.9665 15.0491 27.987 15.2305C28.0075 15.412 27.9914 15.5956 27.9397 15.7707C27.888 15.9458 27.8018 16.1088 27.686 16.25L20.166 25.49C20.0402 25.6427 19.884 25.7676 19.7074 25.8568C19.5308 25.946 19.3376 25.9976 19.14 26.0083C18.9425 26.019 18.7448 25.9886 18.5596 25.919C18.3744 25.8494 18.2057 25.7422 18.064 25.604L12.424 20.064L12.326 19.96C11.874 19.416 11.906 18.614 12.424 18.106C12.942 17.598 13.76 17.566 14.314 18.01L14.42 18.106L18.96 22.546L25.5 14.526L25.48 14.52Z" fill="black"/>
</svg>
