<svg width="56" height="56" viewBox="0 0 56 56" fill="none" xmlns="http://www.w3.org/2000/svg">
<rect width="56" height="56" rx="16" fill="#DBEAFE"/>
<path d="M17.5 28C17.5 29.3789 17.7716 30.7443 18.2993 32.0182C18.8269 33.2921 19.6004 34.4496 20.5754 35.4246C21.5504 36.3996 22.7079 37.1731 23.9818 37.7007C25.2557 38.2284 26.6211 38.5 28 38.5C29.3789 38.5 30.7443 38.2284 32.0182 37.7007C33.2921 37.1731 34.4496 36.3996 35.4246 35.4246C36.3996 34.4496 37.1731 33.2921 37.7007 32.0182C38.2284 30.7443 38.5 29.3789 38.5 28C38.5 25.2152 37.3938 22.5445 35.4246 20.5754C33.4555 18.6062 30.7848 17.5 28 17.5C25.2152 17.5 22.5445 18.6062 20.5754 20.5754C18.6062 22.5445 17.5 25.2152 17.5 28Z" stroke="#2563EB" stroke-width="2.33333" stroke-linecap="round" stroke-linejoin="round"/>
<path d="M28 22.1667V28L31.5 31.5" stroke="#2563EB" stroke-width="2.33333" stroke-linecap="round" stroke-linejoin="round"/>
</svg>
