<svg width="128" height="128" viewBox="0 0 128 128" fill="none" xmlns="http://www.w3.org/2000/svg">
<circle cx="64" cy="64" r="64" fill="#A0EACF" fill-opacity="0.3"/>
<path d="M40 54C39.9997 51.6795 40.5762 49.3953 41.6777 47.3529C42.7792 45.3104 44.3711 43.5738 46.3102 42.2992C48.2493 41.0247 50.4748 40.2521 52.7866 40.0509C55.0984 39.8498 57.4239 40.2265 59.554 41.1471C61.6841 42.0677 63.5519 43.5033 64.9896 45.3248C66.4272 47.1464 67.3895 49.2967 67.7899 51.5824C68.1904 53.8681 68.0164 56.2175 67.2836 58.4192C66.5508 60.621 65.2822 62.6061 63.592 64.196C66.7788 65.7432 69.5457 68.0357 71.6583 70.8794C73.7709 73.7231 75.1669 77.0342 75.728 80.532C75.7897 80.9212 75.7741 81.3188 75.6822 81.702C75.5903 82.0853 75.4238 82.4466 75.1922 82.7655C74.9606 83.0844 74.6685 83.3545 74.3325 83.5605C73.9965 83.7665 73.6232 83.9043 73.234 83.966C72.8447 84.0277 72.4471 84.0122 72.0639 83.9202C71.6807 83.8283 71.3193 83.6618 71.0004 83.4302C70.6816 83.1986 70.4114 82.9065 70.2054 82.5705C69.9995 82.2345 69.8617 81.8612 69.8 81.472C69.2 77.7132 67.2797 74.2915 64.3838 71.8212C61.488 69.3509 57.8063 67.9939 54 67.9939C50.1936 67.9939 46.5119 69.3509 43.6161 71.8212C40.7202 74.2915 38.7999 77.7132 38.2 81.472C38.138 81.8612 37.9999 82.2344 37.7937 82.5703C37.5875 82.9062 37.3171 83.1982 36.9981 83.4296C36.679 83.661 36.3175 83.8273 35.9342 83.919C35.5508 84.0107 35.1532 84.026 34.764 83.964C34.3747 83.902 34.0015 83.764 33.6656 83.5577C33.3297 83.3515 33.0378 83.0812 32.8063 82.7621C32.5749 82.443 32.4086 82.0815 32.317 81.6982C32.2253 81.3149 32.21 80.9172 32.272 80.528C32.8311 77.0305 34.2263 73.7196 36.3392 70.8769C38.4521 68.0342 41.2201 65.7437 44.408 64.2C43.016 62.8907 41.9068 61.3102 41.1487 59.556C40.3906 57.8018 39.9997 55.911 40 54ZM76 48C78.324 48.0016 80.5976 48.6778 82.5448 49.9466C84.492 51.2153 86.029 53.022 86.9693 55.1474C87.9095 57.2727 88.2126 59.6253 87.8418 61.9196C87.4709 64.2139 86.442 66.3511 84.88 68.072C87.316 69.2788 89.4805 70.9696 91.2411 73.0411C93.0018 75.1126 94.3216 77.5212 95.12 80.12C95.2785 80.6243 95.3008 81.1615 95.1846 81.6772C95.0684 82.1929 94.8179 82.6687 94.4583 83.0562C94.0988 83.4437 93.6432 83.7293 93.1377 83.8838C92.6321 84.0383 92.0947 84.0563 91.58 83.936C91.0653 83.817 90.5912 83.5641 90.2056 83.2031C89.82 82.8421 89.5366 82.3857 89.384 81.88C88.666 79.5614 87.3593 77.4685 85.5912 75.8056C83.8231 74.1427 81.6542 72.9666 79.296 72.392C78.6409 72.2339 78.0582 71.8598 77.6417 71.3301C77.2252 70.8004 76.9991 70.1458 77 69.472V68.064C76.9996 67.5055 77.1552 66.9579 77.4492 66.483C77.7432 66.0081 78.1639 65.6247 78.664 65.376C79.8766 64.775 80.8505 63.7817 81.4273 62.5574C82.0042 61.3331 82.1502 59.9497 81.8416 58.6319C81.533 57.3142 80.788 56.1395 79.7275 55.2986C78.667 54.4577 77.3534 54.0001 76 54C75.2043 54 74.4413 53.6839 73.8786 53.1213C73.316 52.5587 73 51.7956 73 51C73 50.2043 73.316 49.4413 73.8786 48.8787C74.4413 48.3161 75.2043 48 76 48ZM54 46C52.9346 45.9759 51.8752 46.1649 50.8839 46.5559C49.8926 46.9469 48.9893 47.5319 48.2273 48.2768C47.4652 49.0217 46.8596 49.9113 46.4461 50.8934C46.0325 51.8755 45.8194 52.9303 45.8191 53.9959C45.8188 55.0616 46.0315 56.1165 46.4445 57.0988C46.8576 58.0812 47.4627 58.9711 48.2244 59.7163C48.9861 60.4615 49.889 61.0471 50.8801 61.4385C51.8713 61.83 52.9306 62.0195 53.996 61.996C56.0862 61.9498 58.0753 61.0871 59.5374 59.5926C60.9996 58.0982 61.8186 56.0907 61.8191 53.9999C61.8196 51.9092 61.0016 49.9013 59.5402 48.4061C58.0788 46.9109 56.0902 46.0473 54 46Z" fill="#A0EACF"/>
</svg>
