<svg width="48" height="48" viewBox="0 0 48 48" fill="none" xmlns="http://www.w3.org/2000/svg">
<path fill-rule="evenodd" clip-rule="evenodd" d="M24 2.50002C20.344 2.50002 17.322 2.82202 14.996 3.21402L14.728 3.26002C12.708 3.59802 11.028 3.88002 9.714 5.49602C8.874 6.53402 8.6 7.65602 8.538 8.90602L7.554 9.23402C6.628 9.54202 5.814 9.81402 5.172 10.114C4.476 10.438 3.838 10.854 3.35 11.532C2.862 12.21 2.668 12.946 2.58 13.708C2.5 14.414 2.5 15.268 2.5 16.246V16.536C2.5 17.34 2.5 18.05 2.56 18.644C2.624 19.286 2.766 19.912 3.12 20.516C3.478 21.122 3.954 21.55 4.486 21.918C4.976 22.258 5.596 22.604 6.3 22.994L11.58 25.928C12.66 28.05 14.142 29.942 16.18 31.308C17.954 32.5 20.084 33.248 22.606 33.446C22.5381 33.623 22.5022 33.8105 22.5 34V37.5H19.64C18.8308 37.5 18.0467 37.7804 17.4209 38.2935C16.7952 38.8065 16.3666 39.5205 16.208 40.314L15.77 42.5H12C11.6022 42.5 11.2206 42.6581 10.9393 42.9394C10.658 43.2207 10.5 43.6022 10.5 44C10.5 44.3978 10.658 44.7794 10.9393 45.0607C11.2206 45.342 11.6022 45.5 12 45.5H36C36.3978 45.5 36.7794 45.342 37.0607 45.0607C37.342 44.7794 37.5 44.3978 37.5 44C37.5 43.6022 37.342 43.2207 37.0607 42.9394C36.7794 42.6581 36.3978 42.5 36 42.5H32.23L31.792 40.314C31.6334 39.5205 31.2048 38.8065 30.5791 38.2935C29.9533 37.7804 29.1692 37.5 28.36 37.5H25.5V34C25.4978 33.8105 25.4619 33.623 25.394 33.446C27.916 33.246 30.046 32.5 31.82 31.31C33.86 29.942 35.34 28.05 36.42 25.928L41.7 22.994C42.404 22.604 43.024 22.258 43.514 21.918C44.044 21.55 44.522 21.122 44.878 20.518C45.234 19.912 45.378 19.286 45.44 18.644C45.5 18.05 45.5 17.34 45.5 16.536V16.246C45.5 15.27 45.5 14.414 45.42 13.708C45.332 12.946 45.14 12.208 44.65 11.532C44.162 10.854 43.524 10.438 42.83 10.112C42.184 9.81202 41.372 9.54202 40.446 9.23402L39.462 8.90602C39.402 7.65402 39.128 6.53402 38.286 5.49602C36.974 3.87802 35.294 3.59602 33.274 3.26002L33.004 3.21402C30.0279 2.72499 27.016 2.48616 24 2.50002ZM29.17 42.5L28.85 40.902C28.8274 40.7887 28.7662 40.6868 28.6768 40.6135C28.5875 40.5402 28.4755 40.5001 28.36 40.5H19.64C19.5245 40.5001 19.4125 40.5402 19.3232 40.6135C19.2338 40.6868 19.1726 40.7887 19.15 40.902L18.83 42.5H29.17ZM8.576 12.056L8.604 12.046C8.748 15.086 9.09 18.446 9.946 21.586L7.814 20.404C7.036 19.97 6.548 19.698 6.196 19.454C5.872 19.228 5.766 19.094 5.708 18.994C5.648 18.894 5.584 18.738 5.544 18.346C5.50266 17.7216 5.48798 17.0957 5.5 16.47V16.324C5.5 15.246 5.502 14.564 5.56 14.048C5.616 13.572 5.704 13.394 5.784 13.286C5.862 13.176 6.002 13.036 6.436 12.834C6.908 12.614 7.556 12.398 8.576 12.056ZM39.396 12.044C39.254 15.084 38.91 18.444 38.056 21.584L40.186 20.402C40.964 19.968 41.452 19.696 41.804 19.452C42.128 19.226 42.234 19.092 42.292 18.992C42.352 18.892 42.416 18.736 42.456 18.344C42.498 17.916 42.5 17.358 42.5 16.468V16.322C42.5 15.244 42.498 14.562 42.44 14.046C42.384 13.57 42.296 13.392 42.216 13.284C42.138 13.174 41.998 13.034 41.564 12.832C41.092 12.612 40.444 12.394 39.424 12.052L39.396 12.044ZM15.496 6.17202C18.307 5.71186 21.1516 5.48708 24 5.50002C27.48 5.50002 30.334 5.80602 32.504 6.17202C34.918 6.58002 35.424 6.73202 35.958 7.38802C36.482 8.03202 36.532 8.64402 36.424 11.354C36.244 15.87 35.648 20.746 33.804 24.454C32.892 26.282 31.7 27.778 30.15 28.818C28.608 29.852 26.618 30.5 24 30.5C21.382 30.5 19.394 29.852 17.852 28.818C16.3 27.778 15.108 26.282 14.198 24.452C12.352 20.746 11.758 15.872 11.578 11.352C11.47 8.64402 11.518 8.03202 12.044 7.38802C12.576 6.73202 13.082 6.58002 15.496 6.17202Z" fill="#E2C555"/>
</svg>
