<svg width="90" height="82" viewBox="0 0 90 82" fill="none" xmlns="http://www.w3.org/2000/svg">
<rect width="90" height="82" rx="12" fill="#DCFCE7"/>
<path d="M45 44C38.75 44 32 40.075 32 31.475C32 22.875 38.75 18.95 45 18.95C48.475 18.95 51.675 20.1 54.05 22.175C56.625 24.45 58 27.7 58 31.475C58 35.25 56.625 38.475 54.05 40.75C51.675 42.825 48.45 44 45 44Z" fill="url(#paint0_radial_40_906)"/>
<path d="M55.725 24.025C56.925 25.95 57.55 28.25 57.55 30.8C57.55 34.6 56.175 37.8 53.6 40.075C51.225 42.15 48 43.325 44.55 43.325C40.5 43.325 36.25 41.675 33.75 38.175C36.15 42.125 40.7 44 45 44C48.45 44 51.675 42.825 54.05 40.75C56.625 38.475 58 35.25 58 31.475C58 28.6 57.225 26.075 55.725 24.025Z" fill="#EB8F00"/>
<path d="M41.7751 33.475L41.7251 33.525C41.7001 33.575 41.6501 33.6 41.6001 33.625L41.4501 33.75L41.2251 33.9C41.1501 33.95 41.0501 34 40.9501 34.05C40.8501 34.1 40.7501 34.15 40.6501 34.175C40.5501 34.2 40.4251 34.225 40.3251 34.25C40.2001 34.275 40.1001 34.275 39.9751 34.275H39.7751L39.6251 34.25C39.5001 34.225 39.4001 34.2 39.3001 34.175C39.2001 34.125 39.1001 34.1 39.0001 34.025C38.9001 33.975 38.8251 33.925 38.7251 33.875C38.6001 33.775 38.4751 33.7 38.3501 33.575L38.2001 33.45L38.1501 33.4C37.8751 33.15 37.4251 33.125 37.1251 33.35C36.9001 33.525 36.8251 33.825 36.9501 34.075L36.9751 34.15C37.0001 34.225 37.0501 34.275 37.0751 34.35C37.3001 34.725 37.6251 35.075 38.0001 35.325C38.1751 35.45 38.3751 35.55 38.5751 35.65C38.8001 35.75 39.0251 35.825 39.2501 35.875C39.3751 35.9 39.5001 35.925 39.6501 35.925C39.7251 35.925 39.8001 35.95 39.8251 35.95H40.0001C40.2501 35.95 40.5001 35.925 40.7501 35.875C40.9751 35.825 41.2001 35.75 41.4251 35.65C41.6251 35.575 41.8001 35.45 42.0001 35.325C42.2751 35.125 42.5251 34.9 42.7251 34.625L42.8251 34.475L42.9251 34.325C42.9501 34.275 43.0001 34.2 43.0001 34.15L43.0251 34.1C43.1501 33.775 43.0001 33.4 42.6751 33.275C42.6501 33.275 42.6251 33.25 42.6001 33.25C42.2751 33.175 41.9751 33.25 41.7751 33.475ZM51.8501 33.475L51.8001 33.525C51.7751 33.575 51.7251 33.6 51.6751 33.625L51.5501 33.75L51.3251 33.9C51.2501 33.95 51.1501 34 51.0501 34.05C50.9501 34.1 50.8501 34.15 50.7501 34.175C50.6501 34.2 50.5251 34.225 50.4251 34.25C50.3001 34.275 50.2001 34.275 50.0751 34.275H49.8751L49.7251 34.25C49.6001 34.225 49.5001 34.2 49.4001 34.175C49.3001 34.125 49.2001 34.1 49.1001 34.025C49.0001 33.975 48.9251 33.925 48.8251 33.875C48.7001 33.775 48.5751 33.7 48.4501 33.575L48.3001 33.45L48.2501 33.4C47.9751 33.15 47.5251 33.125 47.2251 33.35C47.0001 33.525 46.9251 33.825 47.0501 34.075L47.0751 34.15C47.1001 34.225 47.1501 34.275 47.1751 34.35C47.4001 34.725 47.7251 35.075 48.1001 35.325C48.2751 35.45 48.4751 35.55 48.6751 35.65C48.9001 35.75 49.1251 35.825 49.3501 35.875C49.4751 35.9 49.6001 35.925 49.7501 35.925C49.8251 35.925 49.9001 35.95 49.9251 35.95H50.1001C50.3501 35.95 50.6001 35.925 50.8501 35.875C51.0751 35.825 51.3251 35.75 51.5251 35.65C51.7251 35.575 51.9001 35.45 52.1001 35.325C52.3751 35.125 52.6251 34.9 52.8251 34.625L52.9251 34.475L53.0251 34.325C53.0501 34.275 53.1001 34.2 53.1001 34.15L53.1251 34.1C53.2501 33.775 53.1001 33.4 52.7751 33.275C52.7501 33.275 52.7251 33.25 52.7001 33.25C52.4001 33.175 52.0751 33.25 51.8501 33.475ZM49.1001 39.025C49.0001 38.85 48.8001 38.85 48.4751 38.95C47.5251 39.25 46.1751 39.35 45.0251 39.35C43.8751 39.35 42.5251 39.25 41.5501 38.95C41.2251 38.85 41.0251 38.85 40.9251 39.025C40.8251 39.2 40.8251 39.425 41.0251 39.7C41.4251 40.275 43.2251 41.125 45.0251 41.125C46.8251 41.125 48.6001 40.25 49.0251 39.7C49.2001 39.425 49.2001 39.2 49.1001 39.025Z" fill="#422B0D"/>
<path d="M36.6499 19.6L34.5249 16.95M42.0749 17.625L41.1249 13.8M53.3499 19.6L55.4749 16.95M47.9249 17.625L48.8749 13.8" stroke="#B0BEC5" stroke-width="1.25" stroke-miterlimit="10" stroke-linecap="round"/>
<path d="M21.0931 65V57.245H24.5031C25.3245 57.245 25.9625 57.421 26.4171 57.773C26.8718 58.125 27.0991 58.62 27.0991 59.258C27.0991 59.7273 26.9671 60.1197 26.7031 60.435C26.4391 60.7503 26.0871 60.963 25.6471 61.073V60.941C25.9845 60.9923 26.2741 61.1023 26.5161 61.271C26.7655 61.4323 26.9561 61.645 27.0881 61.909C27.2275 62.1657 27.2971 62.4737 27.2971 62.833C27.2971 63.2877 27.1908 63.68 26.9781 64.01C26.7655 64.3327 26.4575 64.5783 26.0541 64.747C25.6581 64.9157 25.1815 65 24.6241 65H21.0931ZM22.4791 63.9H24.4701C24.6608 63.9 24.8331 63.8853 24.9871 63.856C25.1485 63.8267 25.2841 63.7827 25.3941 63.724C25.5115 63.658 25.6068 63.581 25.6801 63.493C25.7535 63.3977 25.8085 63.2913 25.8451 63.174C25.8818 63.0493 25.9001 62.91 25.9001 62.756C25.9001 62.602 25.8818 62.4627 25.8451 62.338C25.8085 62.2133 25.7498 62.107 25.6691 62.019C25.5958 61.931 25.5005 61.8577 25.3831 61.799C25.2731 61.7403 25.1411 61.6963 24.9871 61.667C24.8331 61.6377 24.6608 61.623 24.4701 61.623H22.4791V63.9ZM22.4791 60.523H24.2831C24.7598 60.523 25.1155 60.4313 25.3501 60.248C25.5848 60.0647 25.7021 59.7933 25.7021 59.434C25.7021 59.0747 25.5848 58.8033 25.3501 58.62C25.1155 58.4367 24.7598 58.345 24.2831 58.345H22.4791V60.523ZM28.6523 65V59.599H30.0603V65H28.6523ZM28.8723 58.873L27.3103 56.651H28.7183L29.8403 58.873H28.8723ZM31.5527 65V59.599H32.9057V60.677H32.8177C32.979 60.2883 33.232 59.995 33.5767 59.797C33.9214 59.5917 34.31 59.489 34.7427 59.489C35.1754 59.489 35.5347 59.5697 35.8207 59.731C36.1067 59.8923 36.3194 60.1417 36.4587 60.479C36.6054 60.809 36.6787 61.227 36.6787 61.733V65H35.2817V61.799C35.2817 61.5203 35.245 61.293 35.1717 61.117C35.1057 60.941 34.9994 60.8127 34.8527 60.732C34.706 60.644 34.519 60.6 34.2917 60.6C34.0277 60.6 33.793 60.6587 33.5877 60.776C33.3897 60.886 33.2357 61.0473 33.1257 61.26C33.0157 61.4653 32.9607 61.7073 32.9607 61.986V65H31.5527ZM38.1376 65V57.245H39.5236V60.666H39.4136C39.575 60.2847 39.8243 59.995 40.1616 59.797C40.5063 59.5917 40.895 59.489 41.3276 59.489C41.7603 59.489 42.1196 59.5697 42.4056 59.731C42.6916 59.8923 42.9043 60.138 43.0436 60.468C43.1903 60.798 43.2636 61.2197 43.2636 61.733V65H41.8666V61.799C41.8666 61.5203 41.83 61.293 41.7566 61.117C41.6833 60.941 41.5733 60.8127 41.4266 60.732C41.2873 60.644 41.104 60.6 40.8766 60.6C40.6126 60.6 40.378 60.6587 40.1726 60.776C39.9746 60.886 39.8206 61.0473 39.7106 61.26C39.6006 61.4653 39.5456 61.7073 39.5456 61.986V65H38.1376ZM50.2706 65.11C49.5373 65.11 48.991 64.9303 48.6316 64.571C48.2796 64.2043 48.1036 63.6727 48.1036 62.976V60.666H47.0586V59.599H48.1146V58.004H49.5006V59.599H51.1946V60.666H49.5006V62.899C49.5006 63.251 49.5776 63.515 49.7316 63.691C49.893 63.867 50.146 63.955 50.4906 63.955C50.6006 63.955 50.7143 63.9403 50.8316 63.911C50.949 63.8817 51.07 63.8523 51.1946 63.823L51.4036 64.857C51.257 64.9377 51.081 65 50.8756 65.044C50.6703 65.088 50.4686 65.11 50.2706 65.11ZM52.1562 65V57.245H53.5422V60.666H53.4322C53.5935 60.2847 53.8429 59.995 54.1802 59.797C54.5249 59.5917 54.9135 59.489 55.3462 59.489C55.7789 59.489 56.1382 59.5697 56.4242 59.731C56.7102 59.8923 56.9229 60.138 57.0622 60.468C57.2089 60.798 57.2822 61.2197 57.2822 61.733V65H55.8852V61.799C55.8852 61.5203 55.8485 61.293 55.7752 61.117C55.7019 60.941 55.5919 60.8127 55.4452 60.732C55.3059 60.644 55.1225 60.6 54.8952 60.6C54.6312 60.6 54.3965 60.6587 54.1912 60.776C53.9932 60.886 53.8392 61.0473 53.7292 61.26C53.6192 61.4653 53.5642 61.7073 53.5642 61.986V65H52.1562ZM60.5452 65.11C60.1565 65.11 59.8082 65.0367 59.5002 64.89C59.1922 64.736 58.9502 64.5307 58.7742 64.274C58.5982 64.01 58.5102 63.7167 58.5102 63.394C58.5102 62.998 58.6165 62.6827 58.8292 62.448C59.0418 62.2133 59.3828 62.0447 59.8522 61.942C60.3215 61.832 60.9448 61.777 61.7222 61.777H62.3162V62.591H61.7442C61.3995 62.591 61.1098 62.6057 60.8752 62.635C60.6405 62.657 60.4498 62.6973 60.3032 62.756C60.1565 62.8073 60.0502 62.8807 59.9842 62.976C59.9182 63.0713 59.8852 63.1887 59.8852 63.328C59.8852 63.57 59.9695 63.7643 60.1382 63.911C60.3142 64.0577 60.5525 64.131 60.8532 64.131C61.0952 64.131 61.3115 64.076 61.5022 63.966C61.7002 63.8487 61.8578 63.691 61.9752 63.493C62.0925 63.2877 62.1512 63.0603 62.1512 62.811V61.557C62.1512 61.1903 62.0632 60.93 61.8872 60.776C61.7112 60.622 61.4252 60.545 61.0292 60.545C60.7285 60.545 60.4205 60.589 60.1052 60.677C59.7898 60.765 59.4672 60.9043 59.1372 61.095L58.7302 60.138C58.9355 60.006 59.1702 59.8923 59.4342 59.797C59.6982 59.6943 59.9768 59.6173 60.2702 59.566C60.5635 59.5147 60.8458 59.489 61.1172 59.489C61.6452 59.489 62.0815 59.5697 62.4262 59.731C62.7782 59.885 63.0422 60.127 63.2182 60.457C63.3942 60.787 63.4822 61.2123 63.4822 61.733V65H62.2062V63.856H62.2722C62.2062 64.1127 62.0925 64.3363 61.9312 64.527C61.7772 64.7103 61.5828 64.8533 61.3482 64.956C61.1208 65.0587 60.8532 65.11 60.5452 65.11ZM60.7212 58.873V58.642C60.7212 58.488 60.7505 58.3597 60.8092 58.257C60.8752 58.1543 60.9485 58.0663 61.0292 57.993C61.1098 57.9197 61.1795 57.8463 61.2382 57.773C61.3042 57.6997 61.3372 57.6153 61.3372 57.52C61.3372 57.4247 61.3005 57.355 61.2272 57.311C61.1538 57.267 61.0438 57.245 60.8972 57.245C60.7798 57.245 60.6662 57.2597 60.5562 57.289C60.4535 57.311 60.3435 57.3513 60.2262 57.41L60.0062 56.794C60.1675 56.706 60.3508 56.64 60.5562 56.596C60.7615 56.552 60.9852 56.53 61.2272 56.53C61.6085 56.53 61.9055 56.5997 62.1182 56.739C62.3382 56.8783 62.4482 57.0763 62.4482 57.333C62.4482 57.5163 62.4042 57.6667 62.3162 57.784C62.2282 57.9013 62.1292 58.0003 62.0192 58.081C61.9165 58.1617 61.8212 58.2497 61.7332 58.345C61.6452 58.433 61.6012 58.5503 61.6012 58.697V58.873H60.7212ZM64.9609 65V59.599H66.3139V60.677H66.2259C66.3872 60.2883 66.6402 59.995 66.9849 59.797C67.3296 59.5917 67.7182 59.489 68.1509 59.489C68.5836 59.489 68.9429 59.5697 69.2289 59.731C69.5149 59.8923 69.7276 60.1417 69.8669 60.479C70.0136 60.809 70.0869 61.227 70.0869 61.733V65H68.6899V61.799C68.6899 61.5203 68.6532 61.293 68.5799 61.117C68.5139 60.941 68.4076 60.8127 68.2609 60.732C68.1142 60.644 67.9272 60.6 67.6999 60.6C67.4359 60.6 67.2012 60.6587 66.9959 60.776C66.7979 60.886 66.6439 61.0473 66.5339 61.26C66.4239 61.4653 66.3689 61.7073 66.3689 61.986V65H64.9609Z" fill="black" fill-opacity="0.6"/>
<defs>
<radialGradient id="paint0_radial_40_906" cx="0" cy="0" r="1" gradientUnits="userSpaceOnUse" gradientTransform="translate(45 31.475) scale(12.7648)">
<stop offset="0.5" stop-color="#FDE030"/>
<stop offset="0.92" stop-color="#F7C02B"/>
<stop offset="1" stop-color="#F4A223"/>
</radialGradient>
</defs>
</svg>
