<svg width="90" height="82" viewBox="0 0 90 82" fill="none" xmlns="http://www.w3.org/2000/svg">
<rect width="90" height="82" rx="12" fill="#E0E7FF"/>
<path d="M44.8999 42.7C37.9249 42.7 30.3999 38.325 30.3999 28.725C30.3999 19.125 37.9249 14.75 44.8999 14.75C48.7749 14.75 52.3499 16.025 54.9999 18.35C57.8749 20.9 59.3999 24.5 59.3999 28.725C59.3999 32.95 57.8749 36.525 54.9999 39.075C52.3499 41.4 48.7499 42.7 44.8999 42.7Z" fill="url(#paint0_radial_40_916)"/>
<path d="M56.8725 20.4175C58.205 22.5675 58.9 25.1275 58.9 27.975C58.9 32.2 57.375 35.775 54.5 38.325C51.85 40.65 48.25 41.95 44.4 41.95C39.885 41.95 35.15 40.1125 32.355 36.215C35.045 40.63 40.105 42.7 44.9 42.7C48.75 42.7 52.35 41.4 55 39.075C57.875 36.525 59.4 32.95 59.4 28.725C59.4 25.54 58.5325 22.71 56.8725 20.4175Z" fill="#EB8F00"/>
<path d="M45 34.8C47.7 34.8 49.45 36.775 49.925 37.7C50.1 38.05 50.1 38.35 49.95 38.475C49.79 38.575 49.585 38.575 49.425 38.475C49.345 38.4425 49.27 38.4 49.2 38.35C47.975 37.4702 46.5082 36.99 45 36.975C43.4975 36.995 42.0325 37.465 40.8 38.325C40.73 38.375 40.655 38.4175 40.575 38.45C40.415 38.55 40.21 38.55 40.05 38.45C39.9 38.3 39.9 38.025 40.075 37.675C40.55 36.775 42.3 34.8 45 34.8ZM47.6 29.925C47.5192 29.9996 47.4539 30.0894 47.4079 30.1892C47.3619 30.2891 47.3361 30.397 47.3319 30.5069C47.3277 30.6168 47.3453 30.7264 47.3835 30.8295C47.4218 30.9325 47.4801 31.027 47.555 31.1075C47.605 31.1625 47.6625 31.21 47.725 31.25C48.455 31.7925 49.275 32.2 50.15 32.45C51.0325 32.67 51.945 32.7375 52.85 32.65C53.076 32.6438 53.2903 32.5482 53.4459 32.3841C53.6015 32.2201 53.6857 32.001 53.68 31.775C53.6775 31.7075 53.6675 31.64 53.65 31.575C53.5781 31.3648 53.4384 31.1845 53.2529 31.0623C53.0674 30.9401 52.8465 30.883 52.625 30.9C51.955 30.965 51.28 30.925 50.625 30.775C49.98 30.5775 49.37 30.2725 48.825 29.875C48.6457 29.7425 48.4265 29.6753 48.2037 29.6844C47.9809 29.6935 47.768 29.7784 47.6 29.925ZM42.4 29.925C42.4808 29.9996 42.5461 30.0894 42.5921 30.1892C42.6381 30.2891 42.664 30.397 42.6681 30.5069C42.6723 30.6168 42.6548 30.7264 42.6165 30.8295C42.5782 30.9325 42.5199 31.027 42.445 31.1075C42.395 31.1625 42.3375 31.21 42.275 31.25C41.545 31.7925 40.725 32.2 39.85 32.45C38.968 32.6701 38.0548 32.7377 37.15 32.65C37.0214 32.6478 36.895 32.6157 36.7809 32.5561C36.6669 32.4965 36.5683 32.4111 36.4931 32.3067C36.4178 32.2024 36.368 32.0819 36.3475 31.9548C36.327 31.8278 36.3364 31.6977 36.375 31.575C36.4469 31.3648 36.5866 31.1845 36.7721 31.0623C36.9577 30.9401 37.1785 30.883 37.4 30.9C38.07 30.965 38.745 30.925 39.4 30.775C40.045 30.5775 40.655 30.2725 41.2 29.875C41.3746 29.7425 41.59 29.675 41.809 29.6841C42.028 29.6932 42.237 29.7784 42.4 29.925Z" fill="#422B0D"/>
<path d="M32.2484 65V57.245H35.6584C36.4798 57.245 37.1178 57.421 37.5724 57.773C38.0271 58.125 38.2544 58.62 38.2544 59.258C38.2544 59.7273 38.1224 60.1197 37.8584 60.435C37.5944 60.7503 37.2424 60.963 36.8024 61.073V60.941C37.1398 60.9923 37.4294 61.1023 37.6714 61.271C37.9208 61.4323 38.1114 61.645 38.2434 61.909C38.3828 62.1657 38.4524 62.4737 38.4524 62.833C38.4524 63.2877 38.3461 63.68 38.1334 64.01C37.9208 64.3327 37.6128 64.5783 37.2094 64.747C36.8134 64.9157 36.3368 65 35.7794 65H32.2484ZM33.6344 63.9H35.6254C35.8161 63.9 35.9884 63.8853 36.1424 63.856C36.3038 63.8267 36.4394 63.7827 36.5494 63.724C36.6668 63.658 36.7621 63.581 36.8354 63.493C36.9088 63.3977 36.9638 63.2913 37.0004 63.174C37.0371 63.0493 37.0554 62.91 37.0554 62.756C37.0554 62.602 37.0371 62.4627 37.0004 62.338C36.9638 62.2133 36.9051 62.107 36.8244 62.019C36.7511 61.931 36.6558 61.8577 36.5384 61.799C36.4284 61.7403 36.2964 61.6963 36.1424 61.667C35.9884 61.6377 35.8161 61.623 35.6254 61.623H33.6344V63.9ZM33.6344 60.523H35.4384C35.9151 60.523 36.2708 60.4313 36.5054 60.248C36.7401 60.0647 36.8574 59.7933 36.8574 59.434C36.8574 59.0747 36.7401 58.8033 36.5054 58.62C36.2708 58.4367 35.9151 58.345 35.4384 58.345H33.6344V60.523ZM41.7876 65.11C41.3402 65.11 40.9662 65.0293 40.6656 64.868C40.3722 64.6993 40.1522 64.45 40.0056 64.12C39.8589 63.7827 39.7856 63.3647 39.7856 62.866V59.599H41.1826V62.866C41.1826 63.1153 41.2156 63.3243 41.2816 63.493C41.3549 63.6617 41.4649 63.79 41.6116 63.878C41.7582 63.9587 41.9452 63.999 42.1726 63.999C42.4219 63.999 42.6419 63.9403 42.8326 63.823C43.0232 63.7057 43.1699 63.5443 43.2726 63.339C43.3826 63.1337 43.4376 62.8917 43.4376 62.613V59.599H44.8456V65H43.4926V63.878H43.6136C43.4522 64.274 43.2139 64.5783 42.8986 64.791C42.5906 65.0037 42.2202 65.11 41.7876 65.11ZM48.8248 65.11C48.2602 65.11 47.7688 64.9963 47.3508 64.769C46.9402 64.5343 46.6175 64.208 46.3828 63.79C46.1555 63.3647 46.0418 62.866 46.0418 62.294C46.0418 61.722 46.1555 61.227 46.3828 60.809C46.6175 60.3837 46.9402 60.0573 47.3508 59.83C47.7688 59.6027 48.2602 59.489 48.8248 59.489C49.3895 59.489 49.8808 59.6027 50.2988 59.83C50.7168 60.0573 51.0395 60.3837 51.2668 60.809C51.4942 61.227 51.6078 61.722 51.6078 62.294C51.6078 62.866 51.4942 63.3647 51.2668 63.79C51.0395 64.208 50.7168 64.5343 50.2988 64.769C49.8808 64.9963 49.3895 65.11 48.8248 65.11ZM48.8248 64.021C49.2428 64.021 49.5765 63.8743 49.8258 63.581C50.0825 63.2877 50.2108 62.855 50.2108 62.283C50.2108 61.7183 50.0825 61.293 49.8258 61.007C49.5765 60.7137 49.2428 60.567 48.8248 60.567C48.4068 60.567 48.0732 60.7137 47.8238 61.007C47.5745 61.293 47.4498 61.7183 47.4498 62.283C47.4498 62.855 47.5745 63.2877 47.8238 63.581C48.0732 63.8743 48.4068 64.021 48.8248 64.021ZM46.9768 58.873L48.1978 57.036H49.4518L50.6728 58.873H49.7488L48.8248 57.806L47.9008 58.873H46.9768ZM50.4638 57.652L49.2098 56.002H50.3868L51.2778 57.652H50.4638ZM52.8056 65V59.599H54.1586V60.677H54.0706C54.232 60.2883 54.485 59.995 54.8296 59.797C55.1743 59.5917 55.563 59.489 55.9956 59.489C56.4283 59.489 56.7876 59.5697 57.0736 59.731C57.3596 59.8923 57.5723 60.1417 57.7116 60.479C57.8583 60.809 57.9316 61.227 57.9316 61.733V65H56.5346V61.799C56.5346 61.5203 56.498 61.293 56.4246 61.117C56.3586 60.941 56.2523 60.8127 56.1056 60.732C55.959 60.644 55.772 60.6 55.5446 60.6C55.2806 60.6 55.046 60.6587 54.8406 60.776C54.6426 60.886 54.4886 61.0473 54.3786 61.26C54.2686 61.4653 54.2136 61.7073 54.2136 61.986V65H52.8056Z" fill="black" fill-opacity="0.6"/>
<defs>
<radialGradient id="paint0_radial_40_916" cx="0" cy="0" r="1" gradientUnits="userSpaceOnUse" gradientTransform="translate(44.8999 28.725) scale(14.24)">
<stop offset="0.5" stop-color="#FDE030"/>
<stop offset="0.92" stop-color="#F7C02B"/>
<stop offset="1" stop-color="#F4A223"/>
</radialGradient>
</defs>
</svg>
