<svg width="90" height="82" viewBox="0 0 90 82" fill="none" xmlns="http://www.w3.org/2000/svg">
<rect width="90" height="82" rx="12" fill="#F3E8FF"/>
<path d="M48.875 20.225C49.35 20.725 49.4501 21.35 49.25 21.7C49.025 22.1 48.7501 22.3 48.3251 22.3C48.1501 22.3 47.3251 22.275 46.8751 22.55C46.3751 22.85 45.3001 23.375 44.0501 23.25C43.2251 23.175 42.1501 22.35 41.6501 22.95C41.4001 23.25 41.0001 24.375 40.9751 25.95C40.9501 27.05 41.125 30.925 40.6251 33.4C40.6 33.575 40.7501 33.75 40.9251 33.75C41.4001 33.725 41.9501 33.525 42.4251 32.375C44.9501 26.2 55.3001 26.6 56.8251 33.55C57.4001 36.1 58.175 41.35 53.15 42.85C49.425 43.95 44.1751 43.05 41.3751 42.825C39.6251 42.675 33.275 42.4 32.725 38.85C32.55 37.825 32.8001 36.05 33.1251 33.7C33.2251 32.9 33.4751 30.65 34.3001 28.175C35.0001 26.175 36.0001 24.325 37.2501 22.25C37.7 21.5 38.25 20.275 39.7 18.775C41.725 16.675 44.2001 15.225 45.6251 14.575C46.6751 14.1 47.2751 14.925 47.55 15.575C47.7751 16.125 49.075 17.875 49.675 18.7C49.85 18.95 49.975 19.5 49.6 19.75C49.25 20.025 48.875 20.225 48.875 20.225Z" fill="#FFCA28"/>
<mask id="mask0_40_945" style="mask-type:luminance" maskUnits="userSpaceOnUse" x="32" y="14" width="26" height="30">
<path d="M48.875 20.225C49.35 20.725 49.4501 21.35 49.25 21.7C49.025 22.1 48.7501 22.3 48.3251 22.3C48.1501 22.3 47.3251 22.275 46.8751 22.55C46.3751 22.85 45.3001 23.375 44.0501 23.25C43.2251 23.175 42.1501 22.35 41.6501 22.95C41.4001 23.25 41.0001 24.375 40.9751 25.95C40.9501 27.05 41.125 30.925 40.6251 33.4C40.6 33.575 40.7501 33.75 40.9251 33.75C41.4001 33.725 41.9501 33.525 42.4251 32.375C44.9501 26.2 55.3001 26.6 56.8251 33.55C57.4001 36.1 58.175 41.35 53.15 42.85C49.425 43.95 44.1751 43.05 41.3751 42.825C39.6251 42.675 33.275 42.4 32.725 38.85C32.55 37.825 32.8001 36.05 33.1251 33.7C33.2251 32.9 33.4751 30.65 34.3001 28.175C35.0001 26.175 36.0001 24.325 37.2501 22.25C37.7 21.5 38.25 20.275 39.7 18.775C41.725 16.675 44.2001 15.225 45.6251 14.575C46.6751 14.1 47.2751 14.925 47.55 15.575C47.7751 16.125 49.075 17.875 49.675 18.7C49.85 18.95 49.975 19.5 49.6 19.75C49.25 20.025 48.875 20.225 48.875 20.225Z" fill="white"/>
</mask>
<g mask="url(#mask0_40_945)">
<path d="M56.4 31.35C55.75 31.275 53.825 30.975 53.65 32.925C53.55 34 53.825 36.55 52.025 37.975C50.225 39.4 48.05 40.225 45 38.725C44.725 38.575 44.625 38.675 44.875 38.975C45.125 39.25 46.15 40.15 46.925 40.575C47.525 40.9 47.325 41.625 46.575 41.725C44.175 42.025 42.55 41.05 40.475 41C35.925 40.875 35.45 40.95 34.525 40.325C34.525 40.325 33.275 39.5 33.325 38.25C33.525 31.375 35.45 26.725 37.55 23.25C38.575 21.55 40.125 18.15 45.725 14.9C46 14.75 46.475 14.625 46.875 15.25C47.425 16.125 47.725 16.525 48.15 17.175C48.6 17.825 49.275 17.5 49.275 17.5L46.725 13.375L40.075 17.225L33.125 27.125L31.675 40.1L35.025 43.175L53.05 44.125L58.15 40.75V34.6L56.4 31.35Z" fill="#FAA700"/>
<path d="M43.5501 22.925C44.1751 22.95 45.4751 22.65 46.1001 22.175C46.7251 21.7 47.4251 21.825 47.6751 21.85C47.9251 21.875 48.5001 21.775 48.4501 21.125C48.4001 20.475 48.3751 20.175 48.3751 20.175L49.8251 20.375L50.1751 23.125L44.5001 25.2L43.5501 22.925ZM41.5251 22.775C41.2001 23.025 40.0751 23.85 40.1251 26.075C40.2751 33.025 38.7251 32.425 38.7251 33.975C38.7251 34.675 40.9001 33.975 40.9001 33.975L41.6501 30.1L41.5251 22.775ZM53.2251 28.4C53.1001 28.6 53.0001 29.075 52.2251 28.925C51.4501 28.775 50.0501 28.1 47.2751 28.85C46.2251 29.125 46.2251 28.4 46.2251 28.4L50.1751 26.225L53.2251 28.4Z" fill="#FAA700"/>
</g>
<mask id="mask1_40_945" style="mask-type:luminance" maskUnits="userSpaceOnUse" x="32" y="14" width="26" height="30">
<path d="M48.875 20.225C49.35 20.725 49.4501 21.35 49.25 21.7C49.025 22.1 48.7501 22.3 48.3251 22.3C48.1501 22.3 47.3251 22.275 46.8751 22.55C46.3751 22.85 45.3001 23.375 44.0501 23.25C43.2251 23.175 42.1501 22.35 41.6501 22.95C41.4001 23.25 41.0001 24.375 40.9751 25.95C40.9501 27.05 41.125 30.925 40.6251 33.4C40.6 33.575 40.7501 33.75 40.9251 33.75C41.4001 33.725 41.9501 33.525 42.4251 32.375C44.9501 26.2 55.3001 26.6 56.8251 33.55C57.4001 36.1 58.175 41.35 53.15 42.85C49.425 43.95 44.1751 43.05 41.3751 42.825C39.6251 42.675 33.275 42.4 32.725 38.85C32.55 37.825 32.8001 36.05 33.1251 33.7C33.2251 32.9 33.4751 30.65 34.3001 28.175C35.0001 26.175 36.0001 24.325 37.2501 22.25C37.7 21.5 38.25 20.275 39.7 18.775C41.725 16.675 44.2001 15.225 45.6251 14.575C46.6751 14.1 47.2751 14.925 47.55 15.575C47.7751 16.125 49.075 17.875 49.675 18.7C49.85 18.95 49.975 19.5 49.6 19.75C49.25 20.025 48.875 20.225 48.875 20.225Z" fill="white"/>
</mask>
<g mask="url(#mask1_40_945)">
<path d="M53.6 34C53.375 38.375 48.45 40.45 44.9 38.25C44.525 38.025 44.225 38.375 44.55 38.625C47.775 41.25 51.45 40.025 53.125 37.95C54.025 36.825 54.425 35.25 54.225 34C54.15 33.575 53.625 33.625 53.6 34ZM48.2 27.8C48.175 28 48.1 28.725 47.3 28.875C47 28.925 44.3 29.85 43.075 33.125C42.65 34.275 41.5 34.5 41.05 34.55C40.6 34.575 38.65 34.1 37.925 36C37.8 36.3 37.5 36.15 37.55 35.95C37.675 35.175 37.95 33.975 39.675 33.75C39.875 33.725 40.05 33.6 40.1 33.4C40.475 32.425 40.725 31.475 41.125 31.35C41.55 31.225 46.875 27.5 46.875 27.5L48.2 27.8ZM41.225 25.2C41.05 24.95 40.775 24.6 40.9 24.05C41.025 23.5 41.175 22.975 41.225 22.85C41.275 22.725 41.35 22.45 41.1 22.15C40.875 21.9 41.05 21.525 41.4 21.75C44.225 23.6 45.925 22.625 46.525 22.275C46.85 22.075 47.825 22.075 48.275 22.05C49.35 22.025 49.225 20.525 48.4 20.35C47.575 20.175 47.075 20.675 46.4 20.4C46 20.25 45.6 19.9 44.975 19.825C44.7 19.8 44.8 19.575 44.925 19.575C45.175 19.575 45.4 19.6 45.6 19.625C45.475 18.25 46.425 17.7 46.425 16.2C46.425 15.95 46.6 16.05 46.625 16.125C46.7 16.35 46.9 17.075 46.6 17.85C47.5 18.575 48.125 18.325 48.65 18.75C48.775 18.875 48.7 18.975 48.6 18.95C48.1 18.775 47.825 18.775 47.65 18.775C47.525 18.775 47.325 18.825 47.375 18.975C47.425 19.125 47.55 19.3 47.6 19.375C47.725 19.525 47.525 19.75 47.375 19.55C47.3 19.45 47.025 18.775 46.675 18.725C46.5 18.7 46.3 18.7 46.2 18.975C45.925 19.775 46.25 19.875 46.725 19.925C47.1 19.95 47.475 19.8 47.7 19.8C48.05 19.8 48.425 19.9 48.575 20.025C48.775 19.875 49.125 19.625 49.3 19.5C49.425 19.4 49.5 19.175 49.375 19C49.25 18.8 47.875 16.575 47.8 16.4C47.7 16.25 47.65 15.825 47.85 15.7C47.9 15.55 50.75 19.35 50.75 19.35L49.2 22.825L41.225 25.2Z" fill="#B55E19"/>
</g>
<path d="M30.7835 65V58.444H28.1215V57.245H34.8755V58.444H32.2135V65H30.7835ZM36.8628 65.11C36.4154 65.11 36.0414 65.0293 35.7408 64.868C35.4474 64.6993 35.2274 64.45 35.0808 64.12C34.9341 63.7827 34.8608 63.3647 34.8608 62.866V59.599H36.2578V62.866C36.2578 63.1153 36.2908 63.3243 36.3568 63.493C36.4301 63.6617 36.5401 63.79 36.6868 63.878C36.8334 63.9587 37.0204 63.999 37.2478 63.999C37.4971 63.999 37.7171 63.9403 37.9078 63.823C38.0984 63.7057 38.2451 63.5443 38.3478 63.339C38.4578 63.1337 38.5128 62.8917 38.5128 62.613V59.599H39.9208V65H38.5678V63.878H38.6888C38.5274 64.274 38.2891 64.5783 37.9738 64.791C37.6658 65.0037 37.2954 65.11 36.8628 65.11ZM39.7008 60.314L38.8868 59.797V59.599C39.1434 59.5917 39.3488 59.555 39.5028 59.489C39.6568 59.4157 39.7704 59.2947 39.8438 59.126C39.9171 58.9573 39.9538 58.7263 39.9538 58.433V58.213H41.1858V58.62C41.1858 58.9353 41.1234 59.214 40.9988 59.456C40.8814 59.698 40.7128 59.896 40.4928 60.05C40.2728 60.1967 40.0088 60.2847 39.7008 60.314ZM36.6868 67.266V65.957H38.0508V67.266H36.6868ZM44.4541 65V57.245H45.8401V60.666H45.7301C45.8914 60.2847 46.1407 59.995 46.4781 59.797C46.8227 59.5917 47.2114 59.489 47.6441 59.489C48.0767 59.489 48.4361 59.5697 48.7221 59.731C49.0081 59.8923 49.2207 60.138 49.3601 60.468C49.5067 60.798 49.5801 61.2197 49.5801 61.733V65H48.1831V61.799C48.1831 61.5203 48.1464 61.293 48.0731 61.117C47.9997 60.941 47.8897 60.8127 47.7431 60.732C47.6037 60.644 47.4204 60.6 47.1931 60.6C46.9291 60.6 46.6944 60.6587 46.4891 60.776C46.2911 60.886 46.1371 61.0473 46.0271 61.26C45.9171 61.4653 45.8621 61.7073 45.8621 61.986V65H44.4541ZM52.843 65.11C52.4543 65.11 52.106 65.0367 51.798 64.89C51.49 64.736 51.248 64.5307 51.072 64.274C50.896 64.01 50.808 63.7167 50.808 63.394C50.808 62.998 50.9143 62.6827 51.127 62.448C51.3397 62.2133 51.6807 62.0447 52.15 61.942C52.6193 61.832 53.2427 61.777 54.02 61.777H54.614V62.591H54.042C53.6973 62.591 53.4077 62.6057 53.173 62.635C52.9383 62.657 52.7477 62.6973 52.601 62.756C52.4543 62.8073 52.348 62.8807 52.282 62.976C52.216 63.0713 52.183 63.1887 52.183 63.328C52.183 63.57 52.2673 63.7643 52.436 63.911C52.612 64.0577 52.8503 64.131 53.151 64.131C53.393 64.131 53.6093 64.076 53.8 63.966C53.998 63.8487 54.1557 63.691 54.273 63.493C54.3903 63.2877 54.449 63.0603 54.449 62.811V61.557C54.449 61.1903 54.361 60.93 54.185 60.776C54.009 60.622 53.723 60.545 53.327 60.545C53.0263 60.545 52.7183 60.589 52.403 60.677C52.0877 60.765 51.765 60.9043 51.435 61.095L51.028 60.138C51.2333 60.006 51.468 59.8923 51.732 59.797C51.996 59.6943 52.2747 59.6173 52.568 59.566C52.8613 59.5147 53.1437 59.489 53.415 59.489C53.943 59.489 54.3793 59.5697 54.724 59.731C55.076 59.885 55.34 60.127 55.516 60.457C55.692 60.787 55.78 61.2123 55.78 61.733V65H54.504V63.856H54.57C54.504 64.1127 54.3903 64.3363 54.229 64.527C54.075 64.7103 53.8807 64.8533 53.646 64.956C53.4187 65.0587 53.151 65.11 52.843 65.11ZM52.986 58.873L51.424 56.651H52.832L53.954 58.873H52.986ZM59.7447 65.11C59.1801 65.11 58.6887 64.9963 58.2707 64.769C57.8601 64.5343 57.5374 64.208 57.3027 63.79C57.0754 63.3647 56.9617 62.866 56.9617 62.294C56.9617 61.722 57.0754 61.227 57.3027 60.809C57.5374 60.3837 57.8601 60.0573 58.2707 59.83C58.6887 59.6027 59.1801 59.489 59.7447 59.489C60.3094 59.489 60.8007 59.6027 61.2187 59.83C61.6367 60.0573 61.9594 60.3837 62.1867 60.809C62.4141 61.227 62.5277 61.722 62.5277 62.294C62.5277 62.866 62.4141 63.3647 62.1867 63.79C61.9594 64.208 61.6367 64.5343 61.2187 64.769C60.8007 64.9963 60.3094 65.11 59.7447 65.11ZM59.7447 64.021C60.1627 64.021 60.4964 63.8743 60.7457 63.581C61.0024 63.2877 61.1307 62.855 61.1307 62.283C61.1307 61.7183 61.0024 61.293 60.7457 61.007C60.4964 60.7137 60.1627 60.567 59.7447 60.567C59.3267 60.567 58.9931 60.7137 58.7437 61.007C58.4944 61.293 58.3697 61.7183 58.3697 62.283C58.3697 62.855 58.4944 63.2877 58.7437 63.581C58.9931 63.8743 59.3267 64.021 59.7447 64.021Z" fill="black" fill-opacity="0.6"/>
</svg>
