<svg width="90" height="82" viewBox="0 0 90 82" fill="none" xmlns="http://www.w3.org/2000/svg">
<rect width="90" height="82" rx="12" fill="#FEF9C3"/>
<path d="M44.8999 42.7C37.9249 42.7 30.3999 38.325 30.3999 28.725C30.3999 19.125 37.9249 14.75 44.8999 14.75C48.7749 14.75 52.3499 16.025 54.9999 18.35C57.8749 20.9 59.3999 24.5 59.3999 28.725C59.3999 32.95 57.8749 36.525 54.9999 39.075C52.3499 41.4 48.7499 42.7 44.8999 42.7Z" fill="url(#paint0_radial_40_895)"/>
<path d="M56.8725 20.4175C58.205 22.5675 58.9 25.1275 58.9 27.975C58.9 32.2 57.375 35.775 54.5 38.325C51.85 40.65 48.25 41.95 44.4 41.95C39.885 41.95 35.14 40.1125 32.355 36.215C35.045 40.63 40.1025 42.7 44.9 42.7C48.75 42.7 52.35 41.4 55 39.075C57.875 36.525 59.4 32.95 59.4 28.725C59.4 25.54 58.5325 22.71 56.8725 20.4175Z" fill="#EB8F00"/>
<path opacity="0.8" d="M35.8125 35.3325C38.2287 35.3325 40.1875 33.3738 40.1875 30.9575C40.1875 28.5413 38.2287 26.5825 35.8125 26.5825C33.3963 26.5825 31.4375 28.5413 31.4375 30.9575C31.4375 33.3738 33.3963 35.3325 35.8125 35.3325Z" fill="url(#paint1_radial_40_895)"/>
<path opacity="0.8" d="M54.1875 35.3325C56.6037 35.3325 58.5625 33.3738 58.5625 30.9575C58.5625 28.5413 56.6037 26.5825 54.1875 26.5825C51.7713 26.5825 49.8125 28.5413 49.8125 30.9575C49.8125 33.3738 51.7713 35.3325 54.1875 35.3325Z" fill="url(#paint2_radial_40_895)"/>
<path d="M41.2401 27.2225C41.2401 27.2225 41.2276 27.205 41.2001 27.1725L41.0951 27.0375C41.0576 26.9975 41.0126 26.95 40.9601 26.895C40.9076 26.835 40.8426 26.7725 40.7776 26.7075C40.7101 26.645 40.6401 26.58 40.5676 26.5275C40.4976 26.47 40.4201 26.4275 40.3576 26.3925C40.2926 26.3525 40.2326 26.3425 40.1951 26.33C40.1751 26.3225 40.1576 26.3225 40.1426 26.32C40.1351 26.3225 40.1276 26.3175 40.1201 26.32L40.1101 26.3225H40.1026C40.1326 26.3225 40.0351 26.325 40.1701 26.32L40.0326 26.325C39.9976 26.325 40.0201 26.3275 40.0226 26.3275C40.0301 26.3275 40.0351 26.3275 40.0401 26.325C40.0601 26.3175 40.0401 26.325 40.0351 26.325C40.0255 26.3257 40.0162 26.3283 40.0076 26.3325C39.9676 26.345 39.9076 26.355 39.8451 26.395C39.7826 26.43 39.7051 26.4725 39.6351 26.53C39.5651 26.585 39.4926 26.6475 39.4251 26.71C39.2951 26.8375 39.1801 26.965 39.1001 27.0575C39.0176 27.1525 38.9726 27.2075 38.9726 27.2075L38.9151 27.275C38.5726 27.675 37.9426 27.7425 37.5101 27.4275C37.2151 27.2125 37.0876 26.8775 37.1426 26.5575C37.1426 26.5575 37.1601 26.455 37.2101 26.2775C37.2626 26.1 37.3501 25.8475 37.5226 25.55C37.6951 25.255 37.9451 24.9075 38.3676 24.59C38.5751 24.435 38.8276 24.28 39.1276 24.175C39.2001 24.1475 39.2776 24.1225 39.3576 24.1025C39.4401 24.0825 39.5051 24.06 39.6176 24.045L39.7726 24.0225C39.8201 24.0175 39.8901 24.01 39.9001 24.01L40.0376 24L40.1151 23.9975H40.1376L40.1701 24H40.2301L40.3576 24.0075C40.4426 24.015 40.5251 24.03 40.6076 24.0425C40.7701 24.0725 40.9326 24.115 41.0801 24.17C41.3536 24.2677 41.6101 24.4077 41.8401 24.585C42.2626 24.9025 42.5126 25.25 42.6851 25.545C42.7726 25.6925 42.8376 25.8325 42.8851 25.955C42.9376 26.0725 42.9751 26.1975 43.0051 26.29C43.0326 26.38 43.0326 26.4275 43.0451 26.47C43.0526 26.51 43.0551 26.5325 43.0551 26.5325C43.1476 27.0375 42.7751 27.515 42.2276 27.5975C41.8351 27.66 41.4576 27.5025 41.2401 27.2225ZM51.1151 27.2225C51.1151 27.2225 51.1026 27.205 51.0751 27.1725L50.9701 27.0375C50.9326 26.9975 50.8876 26.95 50.8351 26.895C50.7826 26.835 50.7176 26.7725 50.6526 26.7075C50.5851 26.645 50.5151 26.58 50.4426 26.5275C50.3726 26.47 50.2951 26.4275 50.2326 26.3925C50.1676 26.3525 50.1076 26.3425 50.0701 26.33C50.0501 26.3225 50.0326 26.3225 50.0176 26.32C50.0101 26.3225 50.0026 26.3175 49.9951 26.32L49.9851 26.3225H49.9751C50.0051 26.3225 49.9076 26.325 50.0426 26.32L49.9051 26.325C49.8701 26.325 49.8926 26.3275 49.8951 26.3275C49.9026 26.3275 49.9076 26.3275 49.9126 26.325C49.9326 26.3175 49.9126 26.325 49.9076 26.325C49.898 26.3257 49.8887 26.3283 49.8801 26.3325C49.8401 26.345 49.7801 26.355 49.7176 26.395C49.6551 26.43 49.5776 26.4725 49.5076 26.53C49.4376 26.585 49.3651 26.6475 49.2976 26.71C49.1676 26.8375 49.0526 26.965 48.9726 27.0575C48.8901 27.1525 48.8451 27.2075 48.8451 27.2075L48.7876 27.275C48.4451 27.675 47.8151 27.7425 47.3826 27.4275C47.0876 27.2125 46.9601 26.8775 47.0151 26.5575C47.0151 26.5575 47.0326 26.455 47.0826 26.2775C47.1351 26.1 47.2226 25.8475 47.3951 25.55C47.5676 25.255 47.8176 24.9075 48.2401 24.59C48.4476 24.435 48.7001 24.28 49.0001 24.175C49.0726 24.1475 49.1501 24.1225 49.2301 24.1025C49.3126 24.0825 49.3776 24.06 49.4901 24.045L49.6451 24.0225C49.6926 24.0175 49.7626 24.01 49.7726 24.01L49.9101 24L49.9876 23.9975H50.0101L50.0426 24H50.1026L50.2301 24.0075C50.3151 24.015 50.3976 24.03 50.4801 24.0425C50.6426 24.0725 50.8051 24.115 50.9526 24.17C51.2261 24.2677 51.4826 24.4077 51.7126 24.585C52.1351 24.9025 52.3851 25.25 52.5576 25.545C52.6451 25.6925 52.7101 25.8325 52.7576 25.955C52.8101 26.0725 52.8476 26.1975 52.8776 26.29C52.9051 26.38 52.9051 26.4275 52.9176 26.47C52.9251 26.51 52.9276 26.5325 52.9276 26.5325C53.0201 27.0375 52.6476 27.515 52.1001 27.5975C51.7076 27.66 51.3301 27.5025 51.1151 27.2225ZM45.0051 36.4975C41.8626 36.4975 39.3776 35.01 38.0076 33.4175C37.8701 33.2575 37.8376 33.0425 37.9251 32.855C38.0126 32.6625 38.2026 32.5375 38.4076 32.5375C38.5001 32.5375 38.5951 32.5625 38.6776 32.61C40.0901 33.425 42.4626 34.4325 44.9976 34.4325H45.0376C47.5751 34.4325 49.9451 33.4225 51.3576 32.61C51.4426 32.5625 51.5351 32.535 51.6276 32.5375C51.8326 32.5375 52.0226 32.6625 52.1101 32.855C52.1951 33.0425 52.1651 33.26 52.0276 33.4175C50.6576 35.0075 48.1701 36.4975 45.0301 36.4975" fill="#422B0D"/>
<path d="M32.499 65L29.056 57.245H30.585L33.313 63.625H32.939L35.656 57.245H37.141L33.698 65H32.499ZM39.2094 65.11C38.7621 65.11 38.3881 65.0293 38.0874 64.868C37.7941 64.6993 37.5741 64.45 37.4274 64.12C37.2808 63.7827 37.2074 63.3647 37.2074 62.866V59.599H38.6044V62.866C38.6044 63.1153 38.6374 63.3243 38.7034 63.493C38.7768 63.6617 38.8868 63.79 39.0334 63.878C39.1801 63.9587 39.3671 63.999 39.5944 63.999C39.8438 63.999 40.0638 63.9403 40.2544 63.823C40.4451 63.7057 40.5918 63.5443 40.6944 63.339C40.8044 63.1337 40.8594 62.8917 40.8594 62.613V59.599H42.2674V65H40.9144V63.878H41.0354C40.8741 64.274 40.6358 64.5783 40.3204 64.791C40.0124 65.0037 39.6421 65.11 39.2094 65.11ZM43.6727 58.455V57.08H45.2457V58.455H43.6727ZM43.7607 65V59.599H45.1687V65H43.7607ZM51.2631 65L48.9421 59.599H50.4271L52.0441 63.724H51.7911L53.4521 59.599H54.8601L52.5061 65H51.2631ZM58.1757 65.11C57.5523 65.11 57.017 64.9963 56.5697 64.769C56.1223 64.5417 55.7777 64.219 55.5357 63.801C55.2937 63.3757 55.1727 62.877 55.1727 62.305C55.1727 61.7477 55.2863 61.26 55.5137 60.842C55.7483 60.4167 56.071 60.0867 56.4817 59.852C56.8997 59.61 57.3763 59.489 57.9117 59.489C58.4323 59.489 58.8797 59.599 59.2537 59.819C59.6277 60.039 59.9173 60.3543 60.1227 60.765C60.328 61.1683 60.4307 61.656 60.4307 62.228V62.635H56.2947V61.821H59.4407L59.2647 61.986C59.2647 61.4873 59.151 61.106 58.9237 60.842C58.6963 60.578 58.3737 60.446 57.9557 60.446C57.655 60.446 57.3947 60.5157 57.1747 60.655C56.9547 60.7943 56.786 60.9923 56.6687 61.249C56.5513 61.5057 56.4927 61.81 56.4927 62.162V62.261C56.4927 62.6643 56.555 62.998 56.6797 63.262C56.8117 63.5187 57.006 63.713 57.2627 63.845C57.5193 63.977 57.8347 64.043 58.2087 64.043C58.5093 64.043 58.81 63.999 59.1107 63.911C59.4113 63.823 59.6863 63.68 59.9357 63.482L60.3317 64.428C60.0603 64.648 59.7303 64.8167 59.3417 64.934C58.953 65.0513 58.5643 65.11 58.1757 65.11ZM57.4827 58.873V58.642C57.4827 58.488 57.512 58.3597 57.5707 58.257C57.6367 58.1543 57.71 58.0663 57.7907 57.993C57.8713 57.9197 57.941 57.8463 57.9997 57.773C58.0657 57.6997 58.0987 57.6153 58.0987 57.52C58.0987 57.4247 58.062 57.355 57.9887 57.311C57.9153 57.267 57.8053 57.245 57.6587 57.245C57.5413 57.245 57.4277 57.2597 57.3177 57.289C57.215 57.311 57.105 57.3513 56.9877 57.41L56.7677 56.794C56.929 56.706 57.1123 56.64 57.3177 56.596C57.523 56.552 57.7467 56.53 57.9887 56.53C58.37 56.53 58.667 56.5997 58.8797 56.739C59.0997 56.8783 59.2097 57.0763 59.2097 57.333C59.2097 57.5163 59.1657 57.6667 59.0777 57.784C58.9897 57.9013 58.8907 58.0003 58.7807 58.081C58.678 58.1617 58.5827 58.2497 58.4947 58.345C58.4067 58.433 58.3627 58.5503 58.3627 58.697V58.873H57.4827Z" fill="black" fill-opacity="0.6"/>
<defs>
<radialGradient id="paint0_radial_40_895" cx="0" cy="0" r="1" gradientUnits="userSpaceOnUse" gradientTransform="translate(44.8999 28.725) scale(14.24)">
<stop offset="0.5" stop-color="#FDE030"/>
<stop offset="0.919" stop-color="#F7C02B"/>
<stop offset="1" stop-color="#F4A223"/>
</radialGradient>
<radialGradient id="paint1_radial_40_895" cx="0" cy="0" r="1" gradientUnits="userSpaceOnUse" gradientTransform="translate(35.8127 30.9571) scale(4.75941 4.52122)">
<stop stop-color="#ED7770"/>
<stop offset="0.9" stop-color="#ED7770" stop-opacity="0"/>
</radialGradient>
<radialGradient id="paint2_radial_40_895" cx="0" cy="0" r="1" gradientUnits="userSpaceOnUse" gradientTransform="translate(54.188 30.9571) scale(4.75941 4.52122)">
<stop stop-color="#ED7770"/>
<stop offset="0.9" stop-color="#ED7770" stop-opacity="0"/>
</radialGradient>
</defs>
</svg>
