<svg width="90" height="82" viewBox="0 0 90 82" fill="none" xmlns="http://www.w3.org/2000/svg">
<rect width="90" height="82" rx="12" fill="#FFEDD5"/>
<path d="M44.8999 42.7C37.9249 42.7 30.3999 38.325 30.3999 28.725C30.3999 19.125 37.9249 14.75 44.8999 14.75C48.7749 14.75 52.3499 16.025 54.9999 18.35C57.8749 20.9 59.3999 24.5 59.3999 28.725C59.3999 32.95 57.8749 36.525 54.9999 39.075C52.3499 41.4 48.7499 42.7 44.8999 42.7Z" fill="url(#paint0_radial_40_926)"/>
<path d="M56.8725 20.4175C58.205 22.5675 58.9 25.1275 58.9 27.975C58.9 32.2 57.375 35.775 54.5 38.325C51.85 40.65 48.25 41.95 44.4 41.95C39.885 41.95 35.15 40.1125 32.355 36.215C35.045 40.63 40.105 42.7 44.9 42.7C48.75 42.7 52.35 41.4 55 39.075C57.875 36.525 59.4 32.95 59.4 28.725C59.4 25.54 58.5325 22.71 56.8725 20.4175Z" fill="#EB8F00"/>
<path d="M37.5925 37.185C39.1925 34.4075 42.5625 33.265 45 33.265C47.4375 33.265 50.8075 34.4075 52.4075 37.185C52.6325 37.58 53.275 37.4075 53.2025 36.9575C52.5875 33.2075 48.4525 31.095 45 30.9575C41.35 30.825 37.5175 33.4175 36.7975 36.9575C36.71 37.4 37.3675 37.58 37.5925 37.185ZM40 23.235C38.9525 23.235 38 24.12 38 25.59C38 27.06 38.9525 27.9425 40 27.9425C41.05 27.9425 42 27.0575 42 25.59C42 24.1225 41.06 23.235 40 23.235Z" fill="#422B0D"/>
<path d="M39.9126 24.2175C39.7414 24.1361 39.545 24.1256 39.3661 24.1883C39.1872 24.2511 39.0404 24.382 38.9576 24.5525C38.8251 24.83 38.8851 25.1625 39.1076 25.3775C39.4626 25.5475 39.8901 25.3975 40.0626 25.0425C40.1951 24.765 40.1351 24.4325 39.9126 24.2175Z" fill="#896024"/>
<path d="M49.6001 23.235C48.5526 23.235 47.6001 24.12 47.6001 25.59C47.6001 27.06 48.5526 27.9425 49.6001 27.9425C50.6476 27.9425 51.6001 27.0575 51.6001 25.59C51.6001 24.1225 50.6476 23.235 49.6001 23.235Z" fill="#422B0D"/>
<path d="M49.5 24.2175C49.3288 24.1361 49.1324 24.1256 48.9535 24.1883C48.7746 24.2511 48.6278 24.382 48.545 24.5525C48.4125 24.83 48.4725 25.1625 48.695 25.3775C49.05 25.5475 49.4775 25.3975 49.65 25.0425C49.7825 24.765 49.7225 24.4325 49.5 24.2175Z" fill="#896024"/>
<path d="M26.9262 65V57.245H28.3562V63.779H32.0742V65H26.9262ZM35.5104 65.11C34.9457 65.11 34.4544 64.9963 34.0364 64.769C33.6257 64.5343 33.303 64.208 33.0684 63.79C32.841 63.3647 32.7274 62.866 32.7274 62.294C32.7274 61.722 32.841 61.227 33.0684 60.809C33.303 60.3837 33.6257 60.0573 34.0364 59.83C34.4544 59.6027 34.9457 59.489 35.5104 59.489C36.075 59.489 36.5664 59.6027 36.9844 59.83C37.4024 60.0573 37.725 60.3837 37.9524 60.809C38.1797 61.227 38.2934 61.722 38.2934 62.294C38.2934 62.866 38.1797 63.3647 37.9524 63.79C37.725 64.208 37.4024 64.5343 36.9844 64.769C36.5664 64.9963 36.075 65.11 35.5104 65.11ZM35.5104 64.021C35.9284 64.021 36.262 63.8743 36.5114 63.581C36.768 63.2877 36.8964 62.855 36.8964 62.283C36.8964 61.7183 36.768 61.293 36.5114 61.007C36.262 60.7137 35.9284 60.567 35.5104 60.567C35.0924 60.567 34.7587 60.7137 34.5094 61.007C34.26 61.293 34.1354 61.7183 34.1354 62.283C34.1354 62.855 34.26 63.2877 34.5094 63.581C34.7587 63.8743 35.0924 64.021 35.5104 64.021ZM44.4122 65.11C43.7742 65.11 43.3012 64.9377 42.9932 64.593C42.6852 64.2483 42.5312 63.746 42.5312 63.086V57.245H43.9392V63.009C43.9392 63.2143 43.9685 63.3903 44.0272 63.537C44.0859 63.6837 44.1739 63.7937 44.2912 63.867C44.4159 63.933 44.5662 63.966 44.7422 63.966C44.8302 63.966 44.9145 63.9623 44.9952 63.955C45.0832 63.9477 45.1675 63.933 45.2482 63.911V65C45.1089 65.0367 44.9732 65.0623 44.8412 65.077C44.7092 65.099 44.5662 65.11 44.4122 65.11ZM47.9231 65.11C47.5344 65.11 47.1861 65.0367 46.8781 64.89C46.5701 64.736 46.3281 64.5307 46.1521 64.274C45.9761 64.01 45.8881 63.7167 45.8881 63.394C45.8881 62.998 45.9944 62.6827 46.2071 62.448C46.4198 62.2133 46.7608 62.0447 47.2301 61.942C47.6994 61.832 48.3228 61.777 49.1001 61.777H49.6941V62.591H49.1221C48.7774 62.591 48.4878 62.6057 48.2531 62.635C48.0184 62.657 47.8278 62.6973 47.6811 62.756C47.5344 62.8073 47.4281 62.8807 47.3621 62.976C47.2961 63.0713 47.2631 63.1887 47.2631 63.328C47.2631 63.57 47.3474 63.7643 47.5161 63.911C47.6921 64.0577 47.9304 64.131 48.2311 64.131C48.4731 64.131 48.6894 64.076 48.8801 63.966C49.0781 63.8487 49.2358 63.691 49.3531 63.493C49.4704 63.2877 49.5291 63.0603 49.5291 62.811V61.557C49.5291 61.1903 49.4411 60.93 49.2651 60.776C49.0891 60.622 48.8031 60.545 48.4071 60.545C48.1064 60.545 47.7984 60.589 47.4831 60.677C47.1678 60.765 46.8451 60.9043 46.5151 61.095L46.1081 60.138C46.3134 60.006 46.5481 59.8923 46.8121 59.797C47.0761 59.6943 47.3548 59.6173 47.6481 59.566C47.9414 59.5147 48.2238 59.489 48.4951 59.489C49.0231 59.489 49.4594 59.5697 49.8041 59.731C50.1561 59.885 50.4201 60.127 50.5961 60.457C50.7721 60.787 50.8601 61.2123 50.8601 61.733V65H49.5841V63.856H49.6501C49.5841 64.1127 49.4704 64.3363 49.3091 64.527C49.1551 64.7103 48.9608 64.8533 48.7261 64.956C48.4988 65.0587 48.2311 65.11 47.9231 65.11ZM48.5391 58.917C47.9891 58.917 47.5454 58.763 47.2081 58.455C46.8708 58.147 46.6764 57.7363 46.6251 57.223L47.3401 57.146C47.3988 57.454 47.5271 57.696 47.7251 57.872C47.9304 58.0407 48.2018 58.125 48.5391 58.125C48.8838 58.125 49.1551 58.0407 49.3531 57.872C49.5511 57.696 49.6794 57.454 49.7381 57.146L50.4531 57.223C50.4091 57.7363 50.2184 58.147 49.8811 58.455C49.5438 58.763 49.0964 58.917 48.5391 58.917ZM48.0331 57.476L48.8471 56.013H50.2111L48.9241 57.476H48.0331ZM52.3388 65V59.599H53.6918V60.677H53.6038C53.7652 60.2883 54.0182 59.995 54.3628 59.797C54.7075 59.5917 55.0962 59.489 55.5288 59.489C55.9615 59.489 56.3208 59.5697 56.6068 59.731C56.8928 59.8923 57.1055 60.1417 57.2448 60.479C57.3915 60.809 57.4648 61.227 57.4648 61.733V65H56.0678V61.799C56.0678 61.5203 56.0312 61.293 55.9578 61.117C55.8918 60.941 55.7855 60.8127 55.6388 60.732C55.4922 60.644 55.3052 60.6 55.0778 60.6C54.8138 60.6 54.5792 60.6587 54.3738 60.776C54.1758 60.886 54.0218 61.0473 53.9118 61.26C53.8018 61.4653 53.7468 61.7073 53.7468 61.986V65H52.3388ZM61.4318 67.09C60.9478 67.09 60.4858 67.0313 60.0458 66.914C59.6131 66.804 59.2318 66.6353 58.9018 66.408L59.2978 65.407C59.5031 65.539 59.7194 65.649 59.9468 65.737C60.1741 65.825 60.4051 65.891 60.6398 65.935C60.8744 65.9863 61.1054 66.012 61.3328 66.012C61.8388 66.012 62.2201 65.891 62.4768 65.649C62.7334 65.407 62.8618 65.0513 62.8618 64.582V63.636H62.9278C62.8104 64.0027 62.5794 64.296 62.2348 64.516C61.8901 64.736 61.5014 64.846 61.0688 64.846C60.5774 64.846 60.1484 64.736 59.7818 64.516C59.4151 64.2887 59.1291 63.9733 58.9238 63.57C58.7258 63.1667 58.6268 62.6973 58.6268 62.162C58.6268 61.6267 58.7258 61.161 58.9238 60.765C59.1291 60.3617 59.4151 60.05 59.7818 59.83C60.1484 59.6027 60.5774 59.489 61.0688 59.489C61.5161 59.489 61.9084 59.599 62.2458 59.819C62.5831 60.039 62.8104 60.3323 62.9278 60.699H62.8618V59.599H64.2148V64.428C64.2148 65.0073 64.1084 65.495 63.8958 65.891C63.6831 66.287 63.3678 66.584 62.9498 66.782C62.5318 66.9873 62.0258 67.09 61.4318 67.09ZM61.4318 63.779C61.8644 63.779 62.2054 63.636 62.4548 63.35C62.7114 63.0567 62.8398 62.6607 62.8398 62.162C62.8398 61.6633 62.7114 61.271 62.4548 60.985C62.2054 60.699 61.8644 60.556 61.4318 60.556C61.0064 60.556 60.6654 60.699 60.4088 60.985C60.1594 61.271 60.0348 61.6633 60.0348 62.162C60.0348 62.6607 60.1594 63.0567 60.4088 63.35C60.6654 63.636 61.0064 63.779 61.4318 63.779Z" fill="black" fill-opacity="0.6"/>
<defs>
<radialGradient id="paint0_radial_40_926" cx="0" cy="0" r="1" gradientUnits="userSpaceOnUse" gradientTransform="translate(44.8999 28.725) scale(14.24)">
<stop offset="0.5" stop-color="#FDE030"/>
<stop offset="0.92" stop-color="#F7C02B"/>
<stop offset="1" stop-color="#F4A223"/>
</radialGradient>
</defs>
</svg>
