<svg width="90" height="82" viewBox="0 0 90 82" fill="none" xmlns="http://www.w3.org/2000/svg">
<rect width="90" height="82" rx="12" fill="#FEE2E2"/>
<path d="M44.8999 42.7C37.9249 42.7 30.3999 38.325 30.3999 28.725C30.3999 19.125 37.9249 14.75 44.8999 14.75C48.7749 14.75 52.3499 16.025 54.9999 18.35C57.8749 20.9 59.3999 24.5 59.3999 28.725C59.3999 32.95 57.8749 36.525 54.9999 39.075C52.3499 41.4 48.7499 42.7 44.8999 42.7Z" fill="url(#paint0_radial_40_936)"/>
<path d="M56.8725 20.4175C58.205 22.5675 58.9 25.1275 58.9 27.975C58.9 32.2 57.375 35.775 54.5 38.325C51.85 40.65 48.25 41.95 44.4 41.95C39.885 41.95 35.15 40.1125 32.355 36.215C35.045 40.63 40.105 42.7 44.9 42.7C48.75 42.7 52.35 41.4 55 39.075C57.875 36.525 59.4 32.95 59.4 28.725C59.4 25.54 58.5325 22.71 56.8725 20.4175Z" fill="#EB8F00"/>
<path d="M49.9751 35.675C49.8776 35.6725 49.7851 35.6475 49.7001 35.6C48.2678 34.7897 46.6455 34.3755 45.0001 34.4C43.3551 34.3875 41.7376 34.8 40.3001 35.6C40.2251 35.6475 40.1376 35.6725 40.0501 35.675C39.8501 35.6675 39.6676 35.5525 39.5751 35.375C39.4976 35.1925 39.5276 34.98 39.6501 34.825C42.2401 31.87 46.7351 31.575 49.6901 34.165C49.9251 34.37 50.1451 34.59 50.3501 34.825C50.5351 35.045 50.5051 35.37 50.2876 35.555C50.2001 35.6275 50.0901 35.67 49.9751 35.675ZM47.4751 25.525C47.4951 25.5275 47.5126 25.535 47.5251 25.55C47.5526 25.5525 47.5726 25.5725 47.5751 25.6C47.6001 25.6 47.6001 25.6 47.6251 25.625C47.6826 25.655 47.7401 25.68 47.8001 25.7L48.0251 25.775C48.2301 25.8425 48.4376 25.8925 48.6501 25.925C48.7751 25.95 48.9001 25.95 49.0251 25.975C49.1576 25.995 49.2901 26.005 49.4251 26H49.8251C49.9514 25.996 50.0771 25.9793 50.2001 25.95C50.4501 25.9 50.6501 25.85 50.8251 25.8C51.0001 25.75 51.1251 25.675 51.2251 25.65C51.2801 25.6375 51.3326 25.6125 51.3751 25.575L51.5001 25.525C51.6731 25.4353 51.8742 25.4165 52.0609 25.4724C52.2475 25.5284 52.405 25.6549 52.5001 25.825C52.5697 25.9548 52.5997 26.1021 52.5863 26.2488C52.573 26.3954 52.5169 26.5349 52.4251 26.65C52.4051 26.6725 52.3876 26.6975 52.3751 26.725C52.3326 26.79 52.2826 26.85 52.2251 26.9C52.0351 27.09 51.8251 27.2575 51.6001 27.4C51.2901 27.5325 50.9726 27.65 50.6501 27.75C50.4601 27.8025 50.2701 27.845 50.0751 27.875C49.9751 27.875 49.8751 27.9 49.7501 27.9H49.4501C49.2501 27.895 49.0501 27.88 48.8501 27.85C48.6551 27.8225 48.4626 27.78 48.2751 27.725C47.9301 27.635 47.6026 27.49 47.3001 27.3C47.1501 27.225 47.0501 27.125 46.9251 27.05C46.8276 26.9725 46.7351 26.89 46.6501 26.8L46.5501 26.7C46.5251 26.675 46.5251 26.65 46.5001 26.65L46.4501 26.6C46.2026 26.2675 46.2676 25.7975 46.6001 25.55C46.8651 25.38 47.2026 25.37 47.4751 25.525ZM38.2751 25.525C38.2951 25.5275 38.3126 25.535 38.3251 25.55C38.3526 25.5525 38.3726 25.5725 38.3751 25.6C38.4001 25.6 38.4001 25.6 38.4251 25.625C38.4826 25.655 38.5401 25.68 38.6001 25.7L38.8251 25.775C39.0301 25.8425 39.2376 25.8925 39.4501 25.925C39.5751 25.95 39.7001 25.95 39.8251 25.975C39.9576 25.9975 40.0901 26.005 40.2251 26H40.6251C40.7514 25.996 40.8771 25.9793 41.0001 25.95C41.2501 25.9 41.4501 25.85 41.6251 25.8C41.8001 25.75 41.9251 25.675 42.0251 25.65C42.0801 25.6375 42.1326 25.6125 42.1751 25.575L42.3001 25.525C42.4731 25.4353 42.6742 25.4165 42.8609 25.4724C43.0475 25.5284 43.205 25.6549 43.3001 25.825C43.3697 25.9548 43.3997 26.1021 43.3863 26.2488C43.373 26.3954 43.3169 26.5349 43.2251 26.65C43.2051 26.6725 43.1876 26.6975 43.1751 26.725C43.1326 26.79 43.0826 26.85 43.0251 26.9C42.8401 27.095 42.6301 27.2625 42.4001 27.4C42.0901 27.59 41.7526 27.735 41.4001 27.825C41.2101 27.8775 41.0201 27.92 40.8251 27.95C40.7251 27.95 40.6251 27.975 40.5001 27.975H40.2001C40.0001 27.97 39.8001 27.955 39.6001 27.925C39.4051 27.8975 39.2126 27.855 39.0251 27.8C38.6751 27.705 38.3376 27.5625 38.0251 27.375C37.9001 27.3 37.7751 27.2 37.6501 27.125C37.5526 27.0475 37.4601 26.965 37.3751 26.875L37.2751 26.775C37.2501 26.75 37.2501 26.725 37.2251 26.725L37.1751 26.675C36.9276 26.3425 36.9926 25.8725 37.3251 25.625C37.5901 25.4 37.9676 25.36 38.2751 25.525Z" fill="#35220B"/>
<path d="M47.8799 22.4725L47.8549 22.5025C47.4899 23.0025 46.6599 22.6325 46.9474 22.0025C47.1899 21.5 47.5074 21.0375 47.8874 20.63C48.9049 19.525 50.3074 18.8525 51.8049 18.75C52.0899 18.725 52.3424 18.94 52.3674 19.225C52.3784 19.3568 52.3387 19.4878 52.2565 19.5913C52.1743 19.6949 52.0557 19.7633 51.9249 19.7825C50.3117 20.197 48.8861 21.1451 47.8799 22.4725ZM42.6049 22.7225L42.6274 22.7525C42.9949 23.2525 43.8249 22.8825 43.5374 22.2525C43.2941 21.7502 42.9763 21.2875 42.5949 20.88C41.5786 19.7755 40.1774 19.1026 38.6799 19C38.3949 18.9725 38.1399 19.1825 38.1124 19.4675C38.0849 19.745 38.2824 19.9925 38.5574 20.0325C40.1714 20.4471 41.5977 21.395 42.6049 22.7225Z" fill="#422B0D"/>
<path d="M30.4426 36C30.6426 35.76 30.6726 35.4225 30.5176 35.15C30.1767 34.5691 30.0805 33.8767 30.2501 33.225C30.5176 32.1125 31.4826 31.31 32.6251 31.25H32.7751C33.2026 31.2525 33.6226 31.36 34.0001 31.5625C34.4001 31.7925 34.7551 32.1 35.0401 32.4625C35.9201 32.0975 39.6651 30.7125 40.6326 30.355H40.6476L38.0826 35.7925C39.2426 36.65 39.4876 38.2875 38.6301 39.4475C38.4036 39.7538 38.1128 40.0068 37.778 40.1886C37.4433 40.3704 37.0728 40.4767 36.6926 40.5H36.5401C35.9301 40.505 35.3376 40.2925 34.8676 39.9C34.7276 39.785 34.5501 39.7225 34.3676 39.725C34.2176 39.7275 34.0701 39.77 33.9426 39.85C33.5044 40.1407 32.9909 40.2971 32.4651 40.3C32.2626 40.3 32.0626 40.275 31.8676 40.225C30.7401 39.97 29.9176 39.0025 29.8401 37.85C29.7901 37.1775 30.0076 36.5125 30.4426 36Z" fill="white"/>
<path d="M40.6399 30.35L36.7949 35.4225L38.0824 35.7925L40.6399 30.35Z" fill="#92CBEB"/>
<path d="M36.9125 35.335C36.8175 35.34 36.745 35.4175 36.75 35.5125C36.7525 35.575 36.79 35.63 36.845 35.6575C37.36 35.8825 37.7325 36.3425 37.845 36.8925C37.95 37.4725 37.795 38.2225 37.345 38.6425C36.895 39.0625 36.15 39.1425 35.5775 38.9925C35.005 38.8425 34.3275 38.2425 33.885 37.795C33.8483 37.7577 33.7984 37.7363 33.746 37.7353C33.6937 37.7344 33.643 37.754 33.605 37.79C33.5725 37.82 33.5525 37.86 33.5475 37.905C33.5225 38.145 33.5425 38.3875 33.6125 38.6175C33.6475 38.845 32.485 39.72 31.1675 39.015C29.295 38 30.7775 35.875 30.565 35.7925C30.535 35.8675 30.495 35.9375 30.4425 36C30.0067 36.5138 29.7903 37.1782 29.84 37.85C29.9175 39.0025 30.74 39.97 31.8675 40.225C32.0625 40.275 32.2625 40.3 32.465 40.3C32.99 40.2975 33.505 40.14 33.9425 39.85C34.07 39.77 34.2175 39.7275 34.3675 39.725C34.55 39.7225 34.7275 39.785 34.8675 39.9C35.3375 40.2925 35.93 40.505 36.54 40.5H36.6925C38.1325 40.41 39.2275 39.17 39.135 37.73C39.0875 36.96 38.7 36.2525 38.0825 35.7925L38.235 35.465C37.805 35.34 37.3575 35.2975 36.9125 35.335ZM30.25 33.225C30.0825 33.8775 30.1825 34.57 30.525 35.15C30.63 35.3475 30.6475 35.58 30.5725 35.79C30.8876 35.5543 31.1012 35.2075 31.17 34.82C31.195 34.3975 31.1475 33.975 31.025 33.57C30.9125 33.2275 30.9325 32.8575 31.0825 32.53C31.355 31.8775 32.17 31.4975 32.24 31.47C32.41 31.4 32.445 31.3225 32.4375 31.27C31.9173 31.3348 31.4293 31.5566 31.0385 31.9059C30.6476 32.2552 30.3726 32.7154 30.25 33.225Z" fill="#92CBEB"/>
<path d="M59.5575 36C59.4598 35.8829 59.4002 35.7387 59.3868 35.5867C59.3734 35.4348 59.4068 35.2824 59.4825 35.15C59.825 34.57 59.925 33.8775 59.7575 33.225C59.6277 32.6836 59.3263 32.1987 58.8983 31.8428C58.4702 31.4868 57.9385 31.2789 57.3825 31.25H57.2325C56.8025 31.25 56.3775 31.3575 56 31.5625C55.6 31.7925 55.245 32.1 54.96 32.4625C54.08 32.0975 50.335 30.7125 49.3675 30.355H49.3525L51.9175 35.7925C50.7575 36.65 50.5125 38.2875 51.37 39.4475C51.8275 40.0675 52.5375 40.4525 53.3075 40.5H53.46C54.07 40.505 54.6625 40.2925 55.1325 39.9C55.2725 39.785 55.45 39.7225 55.6325 39.725C55.7825 39.7275 55.93 39.77 56.0575 39.85C56.4957 40.1407 57.0092 40.2971 57.535 40.3C57.7375 40.3 57.9375 40.275 58.1325 40.225C59.26 39.97 60.0825 39.0025 60.16 37.85C60.21 37.1775 59.9925 36.5125 59.5575 36Z" fill="white"/>
<path d="M49.3601 30.35L53.2026 35.4225L51.9176 35.7925L49.3601 30.35Z" fill="#92CBEB"/>
<path d="M53.0875 35.335C53.1825 35.34 53.255 35.4175 53.25 35.5125C53.2475 35.575 53.21 35.63 53.155 35.6575C52.64 35.8825 52.2675 36.3425 52.155 36.8925C52.05 37.4725 52.205 38.2225 52.655 38.6425C53.105 39.0625 53.85 39.1425 54.4225 38.9925C54.995 38.8425 55.6725 38.2425 56.115 37.795C56.1517 37.7577 56.2016 37.7363 56.2539 37.7353C56.3063 37.7344 56.3569 37.754 56.395 37.79C56.4275 37.82 56.4475 37.86 56.4525 37.905C56.4775 38.145 56.4575 38.3875 56.3875 38.6175C56.3525 38.845 57.515 39.72 58.8325 39.015C60.71 38.015 59.2275 35.8875 59.44 35.805C59.47 35.88 59.51 35.95 59.5625 36.0125C59.9975 36.525 60.215 37.19 60.165 37.8625C60.0875 39.015 59.265 39.9825 58.1375 40.2375C57.9425 40.2875 57.7425 40.3125 57.54 40.3125C57.015 40.31 56.5 40.1525 56.0625 39.8625C55.935 39.7825 55.7875 39.74 55.6375 39.7375C55.455 39.735 55.2775 39.7975 55.1375 39.9125C54.6688 40.3046 54.076 40.5173 53.465 40.5125H53.3125C51.8725 40.4225 50.7775 39.1825 50.87 37.7425C50.9175 36.9725 51.305 36.265 51.9225 35.805L51.77 35.4775C52.1975 35.35 52.6425 35.3025 53.0875 35.335ZM59.75 33.225C59.9175 33.8775 59.8175 34.57 59.475 35.15C59.37 35.3475 59.3525 35.58 59.4275 35.79C59.1124 35.5543 58.8988 35.2075 58.83 34.82C58.805 34.3975 58.8525 33.975 58.975 33.57C59.0875 33.2275 59.0675 32.8575 58.9175 32.53C58.645 31.8775 57.83 31.4975 57.76 31.47C57.59 31.4 57.555 31.3225 57.5625 31.27C58.6275 31.4025 59.5 32.1825 59.75 33.225Z" fill="#92CBEB"/>
<path d="M19.7058 65.11C18.9064 65.11 18.2171 64.9487 17.6378 64.626C17.0658 64.3033 16.6221 63.845 16.3068 63.251C15.9988 62.6497 15.8448 61.9383 15.8448 61.117C15.8448 60.2957 15.9988 59.588 16.3068 58.994C16.6221 58.4 17.0658 57.9417 17.6378 57.619C18.2171 57.2963 18.9064 57.135 19.7058 57.135C20.2264 57.135 20.7178 57.2157 21.1798 57.377C21.6491 57.531 22.0341 57.7583 22.3348 58.059L21.8618 59.192C21.5318 58.9133 21.1944 58.7117 20.8498 58.587C20.5124 58.4623 20.1458 58.4 19.7498 58.4C18.9798 58.4 18.3858 58.6347 17.9678 59.104C17.5571 59.5733 17.3518 60.2443 17.3518 61.117C17.3518 61.9897 17.5571 62.6643 17.9678 63.141C18.3858 63.6103 18.9798 63.845 19.7498 63.845C20.1458 63.845 20.5124 63.7827 20.8498 63.658C21.1944 63.5333 21.5318 63.3317 21.8618 63.053L22.3348 64.186C22.0341 64.4793 21.6491 64.7067 21.1798 64.868C20.7178 65.0293 20.2264 65.11 19.7058 65.11ZM25.1282 65.11C24.7395 65.11 24.3912 65.0367 24.0832 64.89C23.7752 64.736 23.5332 64.5307 23.3572 64.274C23.1812 64.01 23.0932 63.7167 23.0932 63.394C23.0932 62.998 23.1995 62.6827 23.4122 62.448C23.6248 62.2133 23.9658 62.0447 24.4352 61.942C24.9045 61.832 25.5278 61.777 26.3052 61.777H26.8992V62.591H26.3272C25.9825 62.591 25.6928 62.6057 25.4582 62.635C25.2235 62.657 25.0328 62.6973 24.8862 62.756C24.7395 62.8073 24.6332 62.8807 24.5672 62.976C24.5012 63.0713 24.4682 63.1887 24.4682 63.328C24.4682 63.57 24.5525 63.7643 24.7212 63.911C24.8972 64.0577 25.1355 64.131 25.4362 64.131C25.6782 64.131 25.8945 64.076 26.0852 63.966C26.2832 63.8487 26.4408 63.691 26.5582 63.493C26.6755 63.2877 26.7342 63.0603 26.7342 62.811V61.557C26.7342 61.1903 26.6462 60.93 26.4702 60.776C26.2942 60.622 26.0082 60.545 25.6122 60.545C25.3115 60.545 25.0035 60.589 24.6882 60.677C24.3728 60.765 24.0502 60.9043 23.7202 61.095L23.3132 60.138C23.5185 60.006 23.7532 59.8923 24.0172 59.797C24.2812 59.6943 24.5598 59.6173 24.8532 59.566C25.1465 59.5147 25.4288 59.489 25.7002 59.489C26.2282 59.489 26.6645 59.5697 27.0092 59.731C27.3612 59.885 27.6252 60.127 27.8012 60.457C27.9772 60.787 28.0652 61.2123 28.0652 61.733V65H26.7892V63.856H26.8552C26.7892 64.1127 26.6755 64.3363 26.5142 64.527C26.3602 64.7103 26.1658 64.8533 25.9312 64.956C25.7038 65.0587 25.4362 65.11 25.1282 65.11ZM25.7442 58.917C25.3775 58.917 25.0548 58.829 24.7762 58.653C24.5048 58.477 24.2922 58.2277 24.1382 57.905C23.9915 57.5823 23.9108 57.2047 23.8962 56.772L24.7212 56.695C24.7505 57.1203 24.8495 57.4503 25.0182 57.685C25.1942 57.9197 25.4362 58.037 25.7442 58.037C26.0522 58.037 26.2905 57.9197 26.4592 57.685C26.6352 57.4503 26.7378 57.1203 26.7672 56.695L27.5922 56.772C27.5848 57.2047 27.5042 57.5823 27.3502 57.905C27.2035 58.2277 26.9908 58.477 26.7122 58.653C26.4408 58.829 26.1182 58.917 25.7442 58.917ZM29.5439 65V59.599H30.8969V60.677H30.8089C30.9702 60.2883 31.2232 59.995 31.5679 59.797C31.9126 59.5917 32.3012 59.489 32.7339 59.489C33.1666 59.489 33.5259 59.5697 33.8119 59.731C34.0979 59.8923 34.3106 60.1417 34.4499 60.479C34.5966 60.809 34.6699 61.227 34.6699 61.733V65H33.2729V61.799C33.2729 61.5203 33.2362 61.293 33.1629 61.117C33.0969 60.941 32.9906 60.8127 32.8439 60.732C32.6972 60.644 32.5102 60.6 32.2829 60.6C32.0189 60.6 31.7842 60.6587 31.5789 60.776C31.3809 60.886 31.2269 61.0473 31.1169 61.26C31.0069 61.4653 30.9519 61.7073 30.9519 61.986V65H29.5439ZM38.6369 67.09C38.1529 67.09 37.6909 67.0313 37.2509 66.914C36.8182 66.804 36.4369 66.6353 36.1069 66.408L36.5029 65.407C36.7082 65.539 36.9245 65.649 37.1519 65.737C37.3792 65.825 37.6102 65.891 37.8449 65.935C38.0795 65.9863 38.3105 66.012 38.5379 66.012C39.0439 66.012 39.4252 65.891 39.6819 65.649C39.9385 65.407 40.0669 65.0513 40.0669 64.582V63.636H40.1329C40.0155 64.0027 39.7845 64.296 39.4399 64.516C39.0952 64.736 38.7065 64.846 38.2739 64.846C37.7825 64.846 37.3535 64.736 36.9869 64.516C36.6202 64.2887 36.3342 63.9733 36.1289 63.57C35.9309 63.1667 35.8319 62.6973 35.8319 62.162C35.8319 61.6267 35.9309 61.161 36.1289 60.765C36.3342 60.3617 36.6202 60.05 36.9869 59.83C37.3535 59.6027 37.7825 59.489 38.2739 59.489C38.7212 59.489 39.1135 59.599 39.4509 59.819C39.7882 60.039 40.0155 60.3323 40.1329 60.699H40.0669V59.599H41.4199V64.428C41.4199 65.0073 41.3135 65.495 41.1009 65.891C40.8882 66.287 40.5729 66.584 40.1549 66.782C39.7369 66.9873 39.2309 67.09 38.6369 67.09ZM38.6369 63.779C39.0695 63.779 39.4105 63.636 39.6599 63.35C39.9165 63.0567 40.0449 62.6607 40.0449 62.162C40.0449 61.6633 39.9165 61.271 39.6599 60.985C39.4105 60.699 39.0695 60.556 38.6369 60.556C38.2115 60.556 37.8705 60.699 37.6139 60.985C37.3645 61.271 37.2399 61.6633 37.2399 62.162C37.2399 62.6607 37.3645 63.0567 37.6139 63.35C37.8705 63.636 38.2115 63.779 38.6369 63.779ZM48.466 65.11C47.7326 65.11 47.1863 64.9303 46.827 64.571C46.475 64.2043 46.299 63.6727 46.299 62.976V60.666H45.254V59.599H46.31V58.004H47.696V59.599H49.39V60.666H47.696V62.899C47.696 63.251 47.773 63.515 47.927 63.691C48.0883 63.867 48.3413 63.955 48.686 63.955C48.796 63.955 48.9096 63.9403 49.027 63.911C49.1443 63.8817 49.2653 63.8523 49.39 63.823L49.599 64.857C49.4523 64.9377 49.2763 65 49.071 65.044C48.8656 65.088 48.664 65.11 48.466 65.11ZM50.3515 65V57.245H51.7375V60.666H51.6275C51.7888 60.2847 52.0382 59.995 52.3755 59.797C52.7202 59.5917 53.1088 59.489 53.5415 59.489C53.9742 59.489 54.3335 59.5697 54.6195 59.731C54.9055 59.8923 55.1182 60.138 55.2575 60.468C55.4042 60.798 55.4775 61.2197 55.4775 61.733V65H54.0805V61.799C54.0805 61.5203 54.0438 61.293 53.9705 61.117C53.8972 60.941 53.7872 60.8127 53.6405 60.732C53.5012 60.644 53.3178 60.6 53.0905 60.6C52.8265 60.6 52.5918 60.6587 52.3865 60.776C52.1885 60.886 52.0345 61.0473 51.9245 61.26C51.8145 61.4653 51.7595 61.7073 51.7595 61.986V65H50.3515ZM58.7405 65.11C58.3518 65.11 58.0035 65.0367 57.6955 64.89C57.3875 64.736 57.1455 64.5307 56.9695 64.274C56.7935 64.01 56.7055 63.7167 56.7055 63.394C56.7055 62.998 56.8118 62.6827 57.0245 62.448C57.2371 62.2133 57.5781 62.0447 58.0475 61.942C58.5168 61.832 59.1401 61.777 59.9175 61.777H60.5115V62.591H59.9395C59.5948 62.591 59.3051 62.6057 59.0705 62.635C58.8358 62.657 58.6451 62.6973 58.4985 62.756C58.3518 62.8073 58.2455 62.8807 58.1795 62.976C58.1135 63.0713 58.0805 63.1887 58.0805 63.328C58.0805 63.57 58.1648 63.7643 58.3335 63.911C58.5095 64.0577 58.7478 64.131 59.0485 64.131C59.2905 64.131 59.5068 64.076 59.6975 63.966C59.8955 63.8487 60.0531 63.691 60.1705 63.493C60.2878 63.2877 60.3465 63.0603 60.3465 62.811V61.557C60.3465 61.1903 60.2585 60.93 60.0825 60.776C59.9065 60.622 59.6205 60.545 59.2245 60.545C58.9238 60.545 58.6158 60.589 58.3005 60.677C57.9851 60.765 57.6625 60.9043 57.3325 61.095L56.9255 60.138C57.1308 60.006 57.3655 59.8923 57.6295 59.797C57.8935 59.6943 58.1721 59.6173 58.4655 59.566C58.7588 59.5147 59.0411 59.489 59.3125 59.489C59.8405 59.489 60.2768 59.5697 60.6215 59.731C60.9735 59.885 61.2375 60.127 61.4135 60.457C61.5895 60.787 61.6775 61.2123 61.6775 61.733V65H60.4015V63.856H60.4675C60.4015 64.1127 60.2878 64.3363 60.1265 64.527C59.9725 64.7103 59.7781 64.8533 59.5435 64.956C59.3161 65.0587 59.0485 65.11 58.7405 65.11ZM59.3565 58.917C58.8065 58.917 58.3628 58.763 58.0255 58.455C57.6881 58.147 57.4938 57.7363 57.4425 57.223L58.1575 57.146C58.2161 57.454 58.3445 57.696 58.5425 57.872C58.7478 58.0407 59.0191 58.125 59.3565 58.125C59.7011 58.125 59.9725 58.0407 60.1705 57.872C60.3685 57.696 60.4968 57.454 60.5555 57.146L61.2705 57.223C61.2265 57.7363 61.0358 58.147 60.6985 58.455C60.3611 58.763 59.9138 58.917 59.3565 58.917ZM58.9605 57.476C58.9605 57.344 58.9861 57.2413 59.0375 57.168C59.0961 57.0873 59.1585 57.0213 59.2245 56.97C59.2978 56.9187 59.3601 56.871 59.4115 56.827C59.4701 56.7757 59.4995 56.7133 59.4995 56.64C59.4995 56.5667 59.4628 56.519 59.3895 56.497C59.3235 56.4677 59.2318 56.453 59.1145 56.453C59.0118 56.453 58.9055 56.464 58.7955 56.486C58.6928 56.5007 58.5865 56.5337 58.4765 56.585L58.2895 56.046C58.4435 55.9727 58.6048 55.9177 58.7735 55.881C58.9495 55.8443 59.1621 55.826 59.4115 55.826C59.7488 55.826 60.0091 55.881 60.1925 55.991C60.3831 56.0937 60.4785 56.2293 60.4785 56.398C60.4785 56.5373 60.4418 56.651 60.3685 56.739C60.2951 56.8197 60.2108 56.893 60.1155 56.959C60.0201 57.025 59.9358 57.0983 59.8625 57.179C59.7965 57.2523 59.7635 57.3513 59.7635 57.476H58.9605ZM63.1562 65V59.599H64.5092V60.677H64.4212C64.5825 60.2883 64.8355 59.995 65.1802 59.797C65.5249 59.5917 65.9135 59.489 66.3462 59.489C66.7789 59.489 67.1382 59.5697 67.4242 59.731C67.7102 59.8923 67.9229 60.1417 68.0622 60.479C68.2089 60.809 68.2822 61.227 68.2822 61.733V65H66.8852V61.799C66.8852 61.5203 66.8485 61.293 66.7752 61.117C66.7092 60.941 66.6029 60.8127 66.4562 60.732C66.3095 60.644 66.1225 60.6 65.8952 60.6C65.6312 60.6 65.3965 60.6587 65.1912 60.776C64.9932 60.886 64.8392 61.0473 64.7292 61.26C64.6192 61.4653 64.5642 61.7073 64.5642 61.986V65H63.1562ZM72.2492 67.09C71.7652 67.09 71.3032 67.0313 70.8632 66.914C70.4305 66.804 70.0492 66.6353 69.7192 66.408L70.1152 65.407C70.3205 65.539 70.5368 65.649 70.7642 65.737C70.9915 65.825 71.2225 65.891 71.4572 65.935C71.6918 65.9863 71.9228 66.012 72.1502 66.012C72.6562 66.012 73.0375 65.891 73.2942 65.649C73.5508 65.407 73.6792 65.0513 73.6792 64.582V63.636H73.7452C73.6278 64.0027 73.3968 64.296 73.0522 64.516C72.7075 64.736 72.3188 64.846 71.8862 64.846C71.3948 64.846 70.9658 64.736 70.5992 64.516C70.2325 64.2887 69.9465 63.9733 69.7412 63.57C69.5432 63.1667 69.4442 62.6973 69.4442 62.162C69.4442 61.6267 69.5432 61.161 69.7412 60.765C69.9465 60.3617 70.2325 60.05 70.5992 59.83C70.9658 59.6027 71.3948 59.489 71.8862 59.489C72.3335 59.489 72.7258 59.599 73.0632 59.819C73.4005 60.039 73.6278 60.3323 73.7452 60.699H73.6792V59.599H75.0322V64.428C75.0322 65.0073 74.9258 65.495 74.7132 65.891C74.5005 66.287 74.1852 66.584 73.7672 66.782C73.3492 66.9873 72.8432 67.09 72.2492 67.09ZM72.2492 63.779C72.6818 63.779 73.0228 63.636 73.2722 63.35C73.5288 63.0567 73.6572 62.6607 73.6572 62.162C73.6572 61.6633 73.5288 61.271 73.2722 60.985C73.0228 60.699 72.6818 60.556 72.2492 60.556C71.8238 60.556 71.4828 60.699 71.2262 60.985C70.9768 61.271 70.8522 61.6633 70.8522 62.162C70.8522 62.6607 70.9768 63.0567 71.2262 63.35C71.4828 63.636 71.8238 63.779 72.2492 63.779Z" fill="black" fill-opacity="0.6"/>
<defs>
<radialGradient id="paint0_radial_40_936" cx="0" cy="0" r="1" gradientUnits="userSpaceOnUse" gradientTransform="translate(44.8999 28.725) scale(14.24)">
<stop offset="0.5" stop-color="#FDE030"/>
<stop offset="0.92" stop-color="#F7C02B"/>
<stop offset="1" stop-color="#F4A223"/>
</radialGradient>
</defs>
</svg>
