<svg width="28" height="28" viewBox="0 0 28 28" fill="none" xmlns="http://www.w3.org/2000/svg">
<path d="M5.24999 2.33334C3.63999 2.33334 2.33333 3.64001 2.33333 5.25001V7.96134C2.33395 8.58513 2.50127 9.19743 2.81798 9.73484C3.13468 10.2723 3.58926 10.7153 4.13466 11.018L10.8453 14.749C9.43972 15.4586 8.31441 16.6214 7.65121 18.0495C6.98801 19.4776 6.82565 21.0875 7.19037 22.6193C7.55509 24.151 8.42559 25.5151 9.66122 26.491C10.8968 27.467 12.4254 27.9979 14 27.9979C15.5746 27.9979 17.1031 27.467 18.3388 26.491C19.5744 25.5151 20.4449 24.151 20.8096 22.6193C21.1743 21.0875 21.012 19.4776 20.3488 18.0495C19.6856 16.6214 18.5603 15.4586 17.1547 14.749L23.8677 11.0203C24.413 10.7171 24.8673 10.2736 25.1836 9.73576C25.4999 9.19792 25.6667 8.5853 25.6667 7.96134V5.25001C25.6667 3.64001 24.36 2.33334 22.75 2.33334H5.24999ZM11.6667 12.5347V4.66668H16.3333V12.5347L14 13.832L11.6667 12.5347ZM18.6667 21C18.6667 22.2377 18.175 23.4247 17.2998 24.2998C16.4247 25.175 15.2377 25.6667 14 25.6667C12.7623 25.6667 11.5753 25.175 10.7002 24.2998C9.82499 23.4247 9.33333 22.2377 9.33333 21C9.33333 19.7623 9.82499 18.5753 10.7002 17.7002C11.5753 16.825 12.7623 16.3333 14 16.3333C15.2377 16.3333 16.4247 16.825 17.2998 17.7002C18.175 18.5753 18.6667 19.7623 18.6667 21Z" fill="black"/>
</svg>
