<svg width="56" height="56" viewBox="0 0 56 56" fill="none" xmlns="http://www.w3.org/2000/svg">
<rect width="56" height="56" rx="16" fill="#FCE7F3"/>
<path d="M18.6667 26.8333V36.1667C18.6667 36.7855 18.9125 37.379 19.3501 37.8166C19.7877 38.2542 20.3812 38.5 21 38.5H35C35.6188 38.5 36.2123 38.2542 36.6499 37.8166C37.0875 37.379 37.3333 36.7855 37.3333 36.1667V26.8333" stroke="#DB2777" stroke-width="2.33333" stroke-linecap="round" stroke-linejoin="round"/>
<path d="M28 20.4167C28 19.3337 27.5698 18.2951 26.804 17.5293C26.0382 16.7635 24.9996 16.3333 23.9167 16.3333C23.1431 16.3333 22.4013 16.6406 21.8543 17.1876C21.3073 17.7346 21 18.4765 21 19.25C21 20.0236 21.3073 20.7654 21.8543 21.3124C22.4013 21.8594 23.1431 22.1667 23.9167 22.1667H28M28 20.4167V22.1667M28 20.4167C28 19.3337 28.4302 18.2951 29.196 17.5293C29.9618 16.7635 31.0004 16.3333 32.0833 16.3333C32.8569 16.3333 33.5987 16.6406 34.1457 17.1876C34.6927 17.7346 35 18.4765 35 19.25C35 19.633 34.9246 20.0123 34.778 20.3662C34.6314 20.72 34.4166 21.0416 34.1457 21.3124C33.8749 21.5832 33.5534 21.7981 33.1995 21.9447C32.8456 22.0912 32.4664 22.1667 32.0833 22.1667H28" stroke="#DB2777" stroke-width="2.33333" stroke-linejoin="round"/>
<path d="M28 26.8333V38.5M17.5 22.1667H38.5V26.8333H17.5V22.1667Z" stroke="#DB2777" stroke-width="2.33333" stroke-linecap="round" stroke-linejoin="round"/>
</svg>
