<svg width="56" height="56" viewBox="0 0 56 56" fill="none" xmlns="http://www.w3.org/2000/svg">
<rect width="56" height="56" rx="16" fill="#F3E8FF"/>
<g clip-path="url(#clip0_37_205)">
<path d="M37.8647 18.1352L40.7977 18.7215C40.9552 18.753 41.0848 18.8685 41.1303 19.0243C41.1532 19.0999 41.1553 19.1804 41.1362 19.2571C41.1171 19.3338 41.0775 19.404 41.0217 19.46L38.619 21.8645C38.3311 22.1508 37.9418 22.3118 37.5358 22.3125H35.5425L30.5375 27.3193C30.633 27.6798 30.6505 28.0565 30.589 28.4244C30.5275 28.7922 30.3883 29.1428 30.1806 29.4526C29.973 29.7624 29.7017 30.0245 29.3849 30.2212C29.0681 30.418 28.7129 30.545 28.3432 30.5938C27.9734 30.6425 27.5975 30.6119 27.2405 30.504C26.8834 30.3961 26.5535 30.2133 26.2727 29.9679C25.9918 29.7225 25.7665 29.4201 25.6117 29.0807C25.4569 28.7414 25.3762 28.373 25.375 28C25.3749 27.5972 25.4675 27.1998 25.6457 26.8385C25.8238 26.4772 26.0827 26.1618 26.4023 25.9166C26.7219 25.6715 27.0937 25.5032 27.4888 25.4247C27.8839 25.3463 28.2917 25.3598 28.6807 25.4643L33.6875 20.4557V18.466C33.6875 18.06 33.8485 17.6697 34.1355 17.3827L36.54 14.9782C36.596 14.9225 36.6662 14.8829 36.7429 14.8638C36.8196 14.8447 36.9001 14.8468 36.9757 14.8697C37.1315 14.9152 37.247 15.0447 37.2785 15.2022L37.8647 18.1352Z" fill="#7C3AED"/>
<path d="M17.5 28C17.5018 29.5014 17.8256 30.985 18.4495 32.3507C19.0734 33.7163 19.983 34.9323 21.1168 35.9166C22.2506 36.9008 23.5823 37.6305 25.0221 38.0563C26.4619 38.4821 27.9762 38.5942 29.463 38.385C30.9498 38.1758 32.3744 37.6502 33.6408 36.8436C34.9072 36.037 35.9858 34.9682 36.804 33.7092C37.6222 32.4503 38.1609 31.0306 38.3837 29.5458C38.6065 28.061 38.5083 26.5456 38.0957 25.102C38.0378 24.9333 38.0148 24.7547 38.0282 24.5768C38.0415 24.399 38.0909 24.2257 38.1733 24.0676C38.2557 23.9095 38.3695 23.7698 38.5076 23.657C38.6458 23.5442 38.8054 23.4607 38.9769 23.4116C39.1483 23.3625 39.3279 23.3488 39.5048 23.3714C39.6817 23.3939 39.8522 23.4522 40.0058 23.5427C40.1595 23.6333 40.2931 23.7541 40.3986 23.8979C40.504 24.0417 40.5791 24.2055 40.6192 24.3793C41.4182 27.1749 41.2664 30.1567 40.1878 32.8568C39.1092 35.5569 37.1647 37.8226 34.6595 39.2984C32.1542 40.7741 29.23 41.3765 26.3455 41.0109C23.4609 40.6453 20.7794 39.3326 18.7215 37.2785C16.6658 35.2211 15.3517 32.5393 14.9853 29.6541C14.6189 26.7689 15.221 23.8438 16.6971 21.3379C18.1733 18.832 20.4398 16.8873 23.1409 15.809C25.842 14.7308 28.8247 14.5802 31.6207 15.3808C31.9537 15.4781 32.2345 15.7032 32.402 16.007C32.5694 16.3108 32.6098 16.6685 32.5143 17.0019C32.4188 17.3354 32.1951 17.6174 31.8923 17.7865C31.5894 17.9556 31.232 17.9979 30.898 17.9043C29.3345 17.4553 27.6881 17.3757 26.0886 17.6719C24.4891 17.968 22.9802 18.6317 21.6811 19.6106C20.3819 20.5896 19.328 21.857 18.6024 23.3129C17.8768 24.7687 17.4994 26.3733 17.5 28Z" fill="#7C3AED"/>
<path d="M22.75 28C22.7501 28.9565 23.0114 29.8949 23.5056 30.7138C23.9998 31.5328 24.7083 32.2013 25.5545 32.6472C26.4008 33.0931 27.3527 33.2995 28.3076 33.2441C29.2625 33.1888 30.1842 32.8737 30.9733 32.333C31.7622 31.7909 32.3878 31.0435 32.7826 30.1715C33.1774 29.2995 33.3264 28.3362 33.2133 27.3858C33.1827 27.1551 33.2141 26.9205 33.3043 26.706C33.3946 26.4916 33.5403 26.305 33.7266 26.1656C33.9129 26.0262 34.133 25.939 34.3642 25.9129C34.5954 25.8868 34.8294 25.9228 35.042 26.0173C35.2546 26.1104 35.4387 26.2583 35.5755 26.4459C35.7123 26.6334 35.797 26.8538 35.8208 27.0848C36.0109 28.7089 35.6907 30.352 34.9047 31.786C34.1186 33.2199 32.9056 34.3736 31.4341 35.0868C29.9626 35.8001 28.3055 36.0376 26.6929 35.7664C25.0803 35.4951 23.5921 34.7286 22.4349 33.5732C21.2778 32.4177 20.509 30.9307 20.2353 29.3185C19.9616 27.7063 20.1965 26.0489 20.9076 24.5763C21.6186 23.1037 22.7705 21.889 24.2032 21.1007C25.636 20.3125 27.2785 19.9898 28.903 20.1775C29.077 20.1936 29.2459 20.2443 29.4 20.3266C29.5541 20.4089 29.6902 20.5211 29.8004 20.6567C29.9105 20.7923 29.9925 20.9485 30.0415 21.1162C30.0906 21.2838 30.1056 21.4596 30.0858 21.6332C30.066 21.8067 30.0117 21.9746 29.9262 22.1269C29.8407 22.2792 29.7256 22.413 29.5878 22.5202C29.4499 22.6275 29.292 22.7062 29.1233 22.7517C28.9547 22.7971 28.7786 22.8085 28.6055 22.785C27.8699 22.6996 27.1246 22.7708 26.4184 22.9939C25.7123 23.217 25.0613 23.5869 24.5083 24.0794C23.9553 24.572 23.5127 25.1759 23.2097 25.8516C22.9067 26.5273 22.75 27.2595 22.75 28Z" fill="#7C3AED"/>
</g>
<defs>
<clipPath id="clip0_37_205">
<rect width="28" height="28" fill="white" transform="translate(14 14)"/>
</clipPath>
</defs>
</svg>
