<svg width="56" height="56" viewBox="0 0 56 56" fill="none" xmlns="http://www.w3.org/2000/svg">
<rect width="56" height="56" rx="16" fill="#DCFCE7"/>
<path d="M39.5733 21.7233C39.4549 21.4383 39.2284 21.2117 38.9433 21.0933C38.8031 21.0336 38.6525 21.0018 38.5 21H32.6667C32.3572 21 32.0605 21.1229 31.8417 21.3417C31.6229 21.5605 31.5 21.8572 31.5 22.1667C31.5 22.4761 31.6229 22.7728 31.8417 22.9916C32.0605 23.2104 32.3572 23.3333 32.6667 23.3333H35.6883L29.1667 29.855L25.3283 26.005C25.2199 25.8956 25.0908 25.8089 24.9487 25.7496C24.8065 25.6904 24.654 25.6599 24.5 25.6599C24.346 25.6599 24.1935 25.6904 24.0513 25.7496C23.9092 25.8089 23.7801 25.8956 23.6717 26.005L16.6717 33.005C16.5623 33.1135 16.4755 33.2425 16.4163 33.3847C16.3571 33.5268 16.3266 33.6793 16.3266 33.8333C16.3266 33.9873 16.3571 34.1398 16.4163 34.282C16.4755 34.4242 16.5623 34.5532 16.6717 34.6617C16.7801 34.771 16.9092 34.8578 17.0513 34.917C17.1935 34.9763 17.346 35.0068 17.5 35.0068C17.654 35.0068 17.8065 34.9763 17.9487 34.917C18.0908 34.8578 18.2199 34.771 18.3283 34.6617L24.5 28.4783L28.3383 32.3283C28.4468 32.4377 28.5758 32.5245 28.718 32.5837C28.8602 32.6429 29.0127 32.6734 29.1667 32.6734C29.3207 32.6734 29.4732 32.6429 29.6153 32.5837C29.7575 32.5245 29.8865 32.4377 29.995 32.3283L37.3333 24.9783V28C37.3333 28.3094 37.4562 28.6062 37.675 28.825C37.8938 29.0437 38.1906 29.1667 38.5 29.1667C38.8094 29.1667 39.1062 29.0437 39.325 28.825C39.5438 28.6062 39.6667 28.3094 39.6667 28V22.1667C39.6648 22.0142 39.6331 21.8636 39.5733 21.7233Z" fill="#16A34A"/>
</svg>
