<svg width="56" height="56" viewBox="0 0 56 56" fill="none" xmlns="http://www.w3.org/2000/svg">
<rect width="56" height="56" rx="16" fill="#FEE2E2"/>
<path d="M28.1167 35.6417L28 35.7583L27.8717 35.6417C22.33 30.6133 18.6667 27.2883 18.6667 23.9167C18.6667 21.5833 20.4167 19.8333 22.75 19.8333C24.5467 19.8333 26.2967 21 26.915 22.5867H29.085C29.7033 21 31.4533 19.8333 33.25 19.8333C35.5833 19.8333 37.3333 21.5833 37.3333 23.9167C37.3333 27.2883 33.67 30.6133 28.1167 35.6417ZM33.25 17.5C31.22 17.5 29.2717 18.445 28 19.9267C26.7283 18.445 24.78 17.5 22.75 17.5C19.1567 17.5 16.3333 20.3117 16.3333 23.9167C16.3333 28.315 20.3 31.92 26.3083 37.3683L28 38.9083L29.6917 37.3683C35.7 31.92 39.6667 28.315 39.6667 23.9167C39.6667 20.3117 36.8433 17.5 33.25 17.5Z" fill="#DC2626"/>
</svg>
