<svg width="128" height="128" viewBox="0 0 128 128" fill="none" xmlns="http://www.w3.org/2000/svg">
<circle cx="64" cy="64" r="64" fill="#A0EACF" fill-opacity="0.3"/>
<path d="M63.9999 46.6667L62.5599 48.0533C62.7465 48.2469 62.9702 48.4009 63.2176 48.506C63.465 48.6112 63.7311 48.6654 63.9999 48.6654C64.2688 48.6654 64.5348 48.6112 64.7823 48.506C65.0297 48.4009 65.2533 48.2469 65.4399 48.0533L63.9999 46.6667ZM57.1359 80.8587C53.0933 77.672 48.6746 74.56 45.1679 70.6133C41.7333 66.7413 39.3333 62.2267 39.3333 56.3653H35.3333C35.3333 63.4747 38.2933 68.8987 42.1786 73.2693C45.9919 77.5627 50.8559 81.0027 54.6586 84L57.1359 80.8587ZM39.3333 56.3653C39.3333 50.632 42.5733 45.8213 46.9973 43.7973C51.2959 41.832 57.0719 42.352 62.5599 48.0533L65.4399 45.2827C58.9333 38.5173 51.3706 37.4 45.3333 40.16C39.4293 42.8613 35.3333 49.1333 35.3333 56.3653H39.3333ZM54.6586 84C56.0266 85.0773 57.4932 86.224 58.9786 87.0933C60.4639 87.9627 62.1599 88.6667 63.9999 88.6667V84.6667C63.1733 84.6667 62.2026 84.3467 60.9972 83.64C59.7892 82.936 58.5386 81.9653 57.1359 80.8587L54.6586 84ZM73.3413 84C77.1439 81 82.0079 77.5653 85.8213 73.2693C89.7066 68.896 92.6666 63.4747 92.6666 56.3653H88.6666C88.6666 62.2267 86.2666 66.7413 82.8319 70.6133C79.3252 74.56 74.9066 77.672 70.8639 80.8587L73.3413 84ZM92.6666 56.3653C92.6666 49.1333 88.5732 42.8613 82.6666 40.16C76.6292 37.4 69.0719 38.5173 62.5599 45.28L65.4399 48.0533C70.9279 42.3547 76.7039 41.832 81.0026 43.7973C85.4266 45.8213 88.6666 50.6293 88.6666 56.3653H92.6666ZM70.8639 80.8587C69.4613 81.9653 68.2106 82.936 67.0026 83.64C65.7946 84.344 64.8266 84.6667 63.9999 84.6667V88.6667C65.8399 88.6667 67.5359 87.96 69.0213 87.0933C70.5093 86.224 71.9733 85.0773 73.3413 84L70.8639 80.8587Z" fill="#A0EACF"/>
</svg>
