<svg width="56" height="56" viewBox="0 0 56 56" fill="none" xmlns="http://www.w3.org/2000/svg">
<rect width="56" height="56" rx="16" fill="#E0E7FF"/>
<path d="M17.5 23.625C17.4999 22.6098 17.7521 21.6104 18.234 20.7169C18.7159 19.8233 19.4124 19.0636 20.2607 18.5059C21.1091 17.9483 22.0828 17.6103 23.0942 17.5223C24.1056 17.4343 25.123 17.5991 26.0549 18.0019C26.9868 18.4046 27.804 19.0327 28.433 19.8296C29.0619 20.6265 29.4829 21.5673 29.6581 22.5673C29.8333 23.5673 29.7572 24.5951 29.4366 25.5584C29.116 26.5217 28.561 27.3902 27.8215 28.0858C29.2157 28.7626 30.4263 29.7656 31.3505 31.0098C32.2748 32.2539 32.8855 33.7025 33.131 35.2328C33.158 35.403 33.1512 35.577 33.111 35.7446C33.0708 35.9123 32.9979 36.0704 32.8966 36.2099C32.7953 36.3494 32.6675 36.4676 32.5205 36.5577C32.3735 36.6478 32.2102 36.7081 32.0399 36.7351C31.8696 36.7621 31.6956 36.7553 31.528 36.7151C31.3603 36.6749 31.2022 36.602 31.0627 36.5007C30.9232 36.3994 30.805 36.2716 30.7149 36.1246C30.6248 35.9776 30.5645 35.8143 30.5375 35.644C30.275 33.9995 29.4349 32.5025 28.1679 31.4218C26.901 30.341 25.2903 29.7473 23.625 29.7473C21.9597 29.7473 20.349 30.341 19.0821 31.4218C17.8151 32.5025 16.975 33.9995 16.7125 35.644C16.6854 35.8143 16.625 35.9776 16.5348 36.1245C16.4445 36.2715 16.3263 36.3992 16.1867 36.5005C16.0471 36.6017 15.8889 36.6745 15.7212 36.7146C15.5535 36.7547 15.3795 36.7614 15.2093 36.7343C15.039 36.7071 14.8757 36.6467 14.7287 36.5565C14.5818 36.4663 14.454 36.348 14.3528 36.2084C14.2516 36.0688 14.1788 35.9107 14.1387 35.743C14.0986 35.5753 14.0919 35.4013 14.119 35.231C14.3636 33.7008 14.974 32.2523 15.8984 31.0087C16.8228 29.765 18.0338 28.7629 19.4285 28.0875C18.8195 27.5147 18.3342 26.8232 18.0026 26.0558C17.6709 25.2883 17.4999 24.4611 17.5 23.625ZM33.25 21C34.2668 21.0007 35.2615 21.2966 36.1134 21.8516C36.9653 22.4067 37.6377 23.1971 38.0491 24.127C38.4604 25.0568 38.593 26.0861 38.4308 27.0898C38.2685 28.0936 37.8184 29.0286 37.135 29.7815C38.2008 30.3095 39.1477 31.0492 39.918 31.9555C40.6883 32.8618 41.2657 33.9156 41.615 35.0525C41.6844 35.2731 41.6941 35.5082 41.6433 35.7338C41.5925 35.9594 41.4828 36.1675 41.3255 36.3371C41.1683 36.5066 40.9689 36.6316 40.7477 36.6992C40.5266 36.7668 40.2915 36.7746 40.0663 36.722C39.8411 36.6699 39.6337 36.5593 39.465 36.4014C39.2963 36.2434 39.1723 36.0437 39.1055 35.8225C38.7914 34.8081 38.2197 33.8925 37.4462 33.165C36.6726 32.4374 35.7237 31.9229 34.692 31.6715C34.4054 31.6023 34.1505 31.4387 33.9683 31.2069C33.786 30.9752 33.6871 30.6888 33.6875 30.394V29.778C33.6873 29.5336 33.7554 29.2941 33.884 29.0863C34.0126 28.8786 34.1967 28.7108 34.4155 28.602C34.946 28.3391 35.3721 27.9045 35.6245 27.3689C35.8768 26.8332 35.9407 26.228 35.8057 25.6515C35.6707 25.075 35.3447 24.561 34.8808 24.1931C34.4168 23.8253 33.8421 23.625 33.25 23.625C32.9019 23.625 32.5681 23.4867 32.3219 23.2406C32.0758 22.9944 31.9375 22.6606 31.9375 22.3125C31.9375 21.9644 32.0758 21.6306 32.3219 21.3844C32.5681 21.1383 32.9019 21 33.25 21ZM23.625 20.125C23.1589 20.1145 22.6954 20.1971 22.2617 20.3682C21.828 20.5393 21.4329 20.7952 21.0994 21.1211C20.766 21.447 20.5011 21.8362 20.3202 22.2659C20.1392 22.6955 20.046 23.157 20.0459 23.6232C20.0458 24.0894 20.1388 24.551 20.3195 24.9807C20.5002 25.4105 20.765 25.7998 21.0982 26.1259C21.4314 26.4519 21.8265 26.7081 22.2601 26.8794C22.6937 27.0506 23.1572 27.1336 23.6233 27.1233C24.5377 27.103 25.408 26.7256 26.0476 26.0718C26.6873 25.418 27.0456 24.5397 27.0459 23.625C27.0461 22.7103 26.6882 21.8318 26.0489 21.1777C25.4095 20.5235 24.5395 20.1457 23.625 20.125Z" fill="#4F46E5"/>
</svg>
