<svg width="48" height="48" viewBox="0 0 48 48" fill="none" xmlns="http://www.w3.org/2000/svg">
<rect width="48" height="48" rx="16" fill="#E0E7FF"/>
<path d="M15 20.25C14.9999 19.3798 15.2161 18.5232 15.6292 17.7573C16.0422 16.9914 16.6392 16.3402 17.3663 15.8622C18.0935 15.3843 18.9281 15.0945 19.795 15.0191C20.6619 14.9437 21.534 15.0849 22.3328 15.4302C23.1316 15.7754 23.832 16.3137 24.3711 16.9968C24.9102 17.6799 25.2711 18.4863 25.4213 19.3434C25.5714 20.2005 25.5062 21.0816 25.2314 21.9072C24.9566 22.7329 24.4809 23.4773 23.847 24.0735C25.0421 24.6537 26.0797 25.5134 26.8719 26.5798C27.6641 27.6462 28.1876 28.8878 28.398 30.1995C28.4212 30.3455 28.4153 30.4946 28.3809 30.6383C28.3464 30.782 28.2839 30.9175 28.1971 31.0371C28.1102 31.1567 28.0007 31.258 27.8747 31.3352C27.7487 31.4124 27.6087 31.4641 27.4628 31.4873C27.3168 31.5104 27.1677 31.5046 27.024 31.4701C26.8803 31.4356 26.7448 31.3732 26.6252 31.2863C26.5056 31.1995 26.4043 31.0899 26.3271 30.9639C26.2498 30.8379 26.1982 30.698 26.175 30.552C25.95 29.1425 25.2299 27.8593 24.144 26.9329C23.058 26.0066 21.6774 25.4977 20.25 25.4977C18.8226 25.4977 17.442 26.0066 16.3561 26.9329C15.2701 27.8593 14.55 29.1425 14.325 30.552C14.3018 30.698 14.25 30.8379 14.1727 30.9639C14.0953 31.0898 13.994 31.1993 13.8743 31.2861C13.7547 31.3729 13.6191 31.4352 13.4753 31.4696C13.3316 31.504 13.1825 31.5098 13.0365 31.4865C12.8906 31.4633 12.7506 31.4115 12.6246 31.3342C12.4987 31.2568 12.3892 31.1554 12.3024 31.0358C12.2156 30.9161 12.1533 30.7806 12.1189 30.6368C12.0845 30.4931 12.0788 30.344 12.102 30.198C12.3117 28.8864 12.8349 27.6449 13.6272 26.5789C14.4196 25.5128 15.4576 24.6539 16.653 24.075C16.131 23.584 15.7151 22.9914 15.4308 22.3335C15.1465 21.6757 14.9999 20.9666 15 20.25ZM28.5 18C29.3715 18.0006 30.2241 18.2542 30.9543 18.73C31.6845 19.2058 32.2609 19.8833 32.6135 20.6803C32.9661 21.4773 33.0798 22.3595 32.9407 23.2199C32.8016 24.0802 32.4158 24.8817 31.83 25.527C32.7435 25.9796 33.5552 26.6136 34.2155 27.3904C34.8757 28.1672 35.3706 29.0705 35.67 30.045C35.7295 30.2341 35.7378 30.4356 35.6943 30.629C35.6507 30.8223 35.5567 31.0008 35.4219 31.1461C35.2871 31.2914 35.1162 31.3985 34.9267 31.4564C34.7371 31.5144 34.5355 31.5211 34.3425 31.476C34.1495 31.4314 33.9717 31.3366 33.8271 31.2012C33.6825 31.0658 33.5763 30.8946 33.519 30.705C33.2498 29.8355 32.7598 29.0507 32.0967 28.4271C31.4337 27.8035 30.6203 27.3625 29.736 27.147C29.4904 27.0877 29.2719 26.9474 29.1157 26.7488C28.9595 26.5501 28.8747 26.3047 28.875 26.052V25.524C28.8749 25.3146 28.9332 25.1092 29.0435 24.9311C29.1537 24.7531 29.3115 24.6093 29.499 24.516C29.9538 24.2906 30.319 23.9181 30.5353 23.459C30.7516 22.9999 30.8064 22.4811 30.6906 21.987C30.5749 21.4928 30.2955 21.0523 29.8978 20.737C29.5002 20.4216 29.0075 20.25 28.5 20.25C28.2017 20.25 27.9155 20.1315 27.7045 19.9205C27.4935 19.7095 27.375 19.4234 27.375 19.125C27.375 18.8266 27.4935 18.5405 27.7045 18.3295C27.9155 18.1185 28.2017 18 28.5 18ZM20.25 17.25C19.8505 17.241 19.4532 17.3118 19.0815 17.4585C18.7097 17.6051 18.371 17.8245 18.0853 18.1038C17.7995 18.3831 17.5724 18.7167 17.4173 19.085C17.2622 19.4533 17.1823 19.8489 17.1822 20.2485C17.1821 20.6481 17.2618 21.0437 17.4167 21.4121C17.5716 21.7804 17.7985 22.1142 18.0842 22.3936C18.3698 22.6731 18.7084 22.8927 19.0801 23.0395C19.4518 23.1863 19.849 23.2573 20.2485 23.2485C21.0324 23.2312 21.7783 22.9077 22.3266 22.3472C22.8749 21.7868 23.182 21.034 23.1822 20.25C23.1824 19.466 22.8756 18.713 22.3276 18.1523C21.7796 17.5916 21.0339 17.2677 20.25 17.25Z" fill="#4F46E5"/>
</svg>
