<svg width="28" height="28" viewBox="0 0 28 28" fill="none" xmlns="http://www.w3.org/2000/svg">
<path d="M17.5 12.8333V12.845M6.03516 9.77433C5.52346 9.38105 5.13046 8.85395 4.8996 8.25128C4.66874 7.64862 4.609 6.99385 4.727 6.35936C4.84499 5.72486 5.13612 5.13535 5.56821 4.65597C6.00029 4.17658 6.55651 3.826 7.17538 3.64297C7.79426 3.45994 8.45169 3.45159 9.07502 3.61884C9.69834 3.78608 10.2633 4.12242 10.7074 4.59066C11.1515 5.05891 11.4576 5.64084 11.5916 6.27213C11.7257 6.90342 11.6826 7.55949 11.4672 8.16783" stroke="black" stroke-width="2.33333" stroke-linecap="round" stroke-linejoin="round"/>
<path d="M18.6667 4.66666V9.10349C20.1105 9.93905 21.2098 11.2612 21.7677 12.8333H23.3322C23.6416 12.8333 23.9383 12.9562 24.1571 13.175C24.3759 13.3938 24.4988 13.6906 24.4988 14V16.3333C24.4988 16.6427 24.3759 16.9395 24.1571 17.1583C23.9383 17.3771 23.6416 17.5 23.3322 17.5H21.7665C21.3745 18.6083 20.7083 19.6 19.8322 20.3852V22.75C19.8322 23.2141 19.6478 23.6592 19.3196 23.9874C18.9914 24.3156 18.5463 24.5 18.0822 24.5C17.618 24.5 17.1729 24.3156 16.8447 23.9874C16.5165 23.6592 16.3322 23.2141 16.3322 22.75V22.0698C15.9467 22.1346 15.5564 22.167 15.1655 22.1667H10.4988C10.1079 22.167 9.71768 22.1346 9.33217 22.0698V22.75C9.33217 23.2141 9.1478 23.6592 8.81961 23.9874C8.49142 24.3156 8.0463 24.5 7.58217 24.5C7.11804 24.5 6.67293 24.3156 6.34474 23.9874C6.01655 23.6592 5.83217 23.2141 5.83217 22.75V20.3852C4.77513 19.4401 4.03 18.1964 3.6954 16.8185C3.36081 15.4406 3.45254 13.9937 3.95844 12.6691C4.46434 11.3445 5.36056 10.2048 6.52848 9.40079C7.6964 8.59679 9.08094 8.16643 10.4988 8.16666H13.4155L18.6667 4.66666Z" stroke="black" stroke-width="2.33333" stroke-linecap="round" stroke-linejoin="round"/>
</svg>
