<svg width="40" height="40" viewBox="0 0 40 40" fill="none" xmlns="http://www.w3.org/2000/svg">
<circle cx="20" cy="20" r="20" fill="#E3F9F1"/>
<path d="M27.887 20.531L29.243 21.7385C29.4934 21.9475 29.6607 22.2392 29.7147 22.5608C29.7686 22.8825 29.7056 23.2128 29.537 23.492L27.902 26.285C27.7752 26.4988 27.594 26.6753 27.377 26.7965C27.1574 26.918 26.9109 26.9825 26.66 26.984C26.5043 26.985 26.3495 26.9617 26.201 26.915L24.4655 26.342C24.1615 26.537 23.8455 26.7115 23.5175 26.8655L23.153 28.625C23.0856 28.9487 22.9053 29.2379 22.6445 29.441C22.3804 29.6478 22.0529 29.7569 21.7175 29.75H18.332C17.9966 29.7569 17.6691 29.6478 17.405 29.441C17.1447 29.2376 16.9651 28.9485 16.898 28.625L16.532 26.8655C16.2083 26.7094 15.8942 26.5341 15.5915 26.3405L13.85 26.915C13.7015 26.9617 13.5467 26.985 13.391 26.984C13.1406 26.9822 12.8946 26.9178 12.6755 26.7965C12.4587 26.6757 12.2776 26.4998 12.1505 26.2865L10.457 23.492C10.2809 23.2103 10.2137 22.874 10.2678 22.5462C10.3219 22.2185 10.4937 21.9217 10.751 21.7115L12.1055 20V19.469L10.7495 18.2615C10.4991 18.0525 10.3318 17.7608 10.2779 17.4392C10.2239 17.1175 10.2869 16.7872 10.4555 16.508L12.149 13.715C12.2759 13.5012 12.457 13.3247 12.674 13.2035C12.8931 13.0823 13.1391 13.0178 13.3895 13.016C13.5438 13.0063 13.6986 13.0204 13.8485 13.058L15.5555 13.658C15.8605 13.463 16.1765 13.2885 16.5035 13.1345L16.8695 11.375C16.9366 11.0516 17.1162 10.7624 17.3765 10.559C17.6406 10.3522 17.9681 10.2431 18.3035 10.25H21.6605C21.9959 10.2431 22.3234 10.3522 22.5875 10.559C22.85 10.7645 23.03 11.054 23.0945 11.375L23.4605 13.1345C23.7855 13.2895 24.099 13.4645 24.401 13.6595L26.144 13.0865C26.3374 13.0236 26.5419 13.0015 26.7443 13.0216C26.9467 13.0418 27.1427 13.1037 27.32 13.2035C27.5375 13.3265 27.7175 13.5035 27.845 13.7135L29.537 16.508C29.7154 16.7873 29.7861 17.1221 29.7359 17.4497C29.6857 17.7773 29.5179 18.0755 29.264 18.2885L27.887 19.4615V20.531Z" stroke="black" stroke-opacity="0.7" stroke-width="1.75"/>
<path d="M23.75 20C23.75 20.9946 23.3549 21.9484 22.6517 22.6517C21.9484 23.3549 20.9946 23.75 20 23.75C19.0054 23.75 18.0516 23.3549 17.3483 22.6517C16.6451 21.9484 16.25 20.9946 16.25 20C16.25 19.0054 16.6451 18.0516 17.3483 17.3483C18.0516 16.6451 19.0054 16.25 20 16.25C20.9946 16.25 21.9484 16.6451 22.6517 17.3483C23.3549 18.0516 23.75 19.0054 23.75 20Z" stroke="black" stroke-opacity="0.7" stroke-width="1.75"/>
</svg>
