<svg width="48" height="48" viewBox="0 0 48 48" fill="none" xmlns="http://www.w3.org/2000/svg">
<rect width="48" height="48" rx="16" fill="#E0E7FF"/>
<path d="M15 20.25C14.9999 19.3798 15.2161 18.5232 15.6292 17.7573C16.0422 16.9914 16.6392 16.3402 17.3663 15.8622C18.0935 15.3842 18.9281 15.0945 19.795 15.0191C20.6619 14.9437 21.534 15.0849 22.3328 15.4302C23.1316 15.7754 23.832 16.3137 24.3711 16.9968C24.9102 17.6799 25.2711 18.4863 25.4213 19.3434C25.5714 20.2005 25.5062 21.0815 25.2314 21.9072C24.9566 22.7329 24.4809 23.4773 23.847 24.0735C25.0421 24.6537 26.0797 25.5134 26.8719 26.5798C27.6641 27.6462 28.1876 28.8878 28.398 30.1995C28.4212 30.3455 28.4153 30.4946 28.3809 30.6383C28.3464 30.782 28.2839 30.9175 28.1971 31.0371C28.1102 31.1566 28.0007 31.2579 27.8747 31.3352C27.7487 31.4124 27.6087 31.4641 27.4628 31.4872C27.3168 31.5104 27.1677 31.5046 27.024 31.4701C26.8803 31.4356 26.7448 31.3732 26.6252 31.2863C26.5056 31.1995 26.4043 31.0899 26.3271 30.9639C26.2498 30.8379 26.1982 30.698 26.175 30.552C25.95 29.1425 25.2299 27.8593 24.144 26.9329C23.058 26.0066 21.6774 25.4977 20.25 25.4977C18.8226 25.4977 17.442 26.0066 16.3561 26.9329C15.2701 27.8593 14.55 29.1425 14.325 30.552C14.3018 30.698 14.25 30.8379 14.1727 30.9639C14.0953 31.0898 13.994 31.1993 13.8743 31.2861C13.7547 31.3729 13.6191 31.4352 13.4753 31.4696C13.3316 31.504 13.1825 31.5097 13.0365 31.4865C12.8906 31.4633 12.7506 31.4115 12.6246 31.3342C12.4987 31.2568 12.3892 31.1554 12.3024 31.0358C12.2156 30.9161 12.1533 30.7806 12.1189 30.6368C12.0845 30.4931 12.0788 30.344 12.102 30.198C12.3117 28.8864 12.8349 27.6449 13.6272 26.5788C14.4196 25.5128 15.4576 24.6539 16.653 24.075C16.131 23.584 15.7151 22.9913 15.4308 22.3335C15.1465 21.6757 14.9999 20.9666 15 20.25ZM28.5 18C29.3715 18.0006 30.2241 18.2542 30.9543 18.73C31.6845 19.2057 32.2609 19.8833 32.6135 20.6803C32.9661 21.4773 33.0798 22.3595 32.9407 23.2198C32.8016 24.0802 32.4158 24.8817 31.83 25.527C32.7435 25.9795 33.5552 26.6136 34.2155 27.3904C34.8757 28.1672 35.3706 29.0705 35.67 30.045C35.7295 30.2341 35.7378 30.4356 35.6943 30.629C35.6507 30.8223 35.5567 31.0007 35.4219 31.1461C35.2871 31.2914 35.1162 31.3985 34.9267 31.4564C34.7371 31.5144 34.5355 31.5211 34.3425 31.476C34.1495 31.4314 33.9717 31.3366 33.8271 31.2012C33.6825 31.0658 33.5763 30.8946 33.519 30.705C33.2498 29.8355 32.7598 29.0507 32.0967 28.4271C31.4337 27.8035 30.6203 27.3625 29.736 27.147C29.4904 27.0877 29.2719 26.9474 29.1157 26.7488C28.9595 26.5501 28.8747 26.3047 28.875 26.052V25.524C28.8749 25.3145 28.9332 25.1092 29.0435 24.9311C29.1537 24.753 29.3115 24.6093 29.499 24.516C29.9538 24.2906 30.319 23.9181 30.5353 23.459C30.7516 22.9999 30.8064 22.4811 30.6906 21.987C30.5749 21.4928 30.2955 21.0523 29.8978 20.737C29.5002 20.4216 29.0075 20.25 28.5 20.25C28.2017 20.25 27.9155 20.1315 27.7045 19.9205C27.4935 19.7095 27.375 19.4234 27.375 19.125C27.375 18.8266 27.4935 18.5405 27.7045 18.3295C27.9155 18.1185 28.2017 18 28.5 18ZM20.25 17.25C19.8505 17.241 19.4532 17.3118 19.0815 17.4585C18.7097 17.6051 18.371 17.8245 18.0853 18.1038C17.7995 18.3831 17.5724 18.7167 17.4173 19.085C17.2622 19.4533 17.1823 19.8489 17.1822 20.2485C17.1821 20.6481 17.2618 21.0437 17.4167 21.4121C17.5716 21.7804 17.7985 22.1141 18.0842 22.3936C18.3698 22.6731 18.7084 22.8926 19.0801 23.0395C19.4518 23.1863 19.849 23.2573 20.2485 23.2485C21.0324 23.2312 21.7783 22.9077 22.3266 22.3472C22.8749 21.7868 23.182 21.034 23.1822 20.25C23.1824 19.4659 22.8756 18.713 22.3276 18.1523C21.7796 17.5916 21.0339 17.2677 20.25 17.25Z" fill="#4F46E5"/>
<rect width="48" height="48" rx="16" fill="#FEE2E2"/>
<path d="M24.1 30.55L24 30.65L23.89 30.55C19.14 26.24 16 23.39 16 20.5C16 18.5 17.5 17 19.5 17C21.04 17 22.54 18 23.07 19.36H24.93C25.46 18 26.96 17 28.5 17C30.5 17 32 18.5 32 20.5C32 23.39 28.86 26.24 24.1 30.55ZM28.5 15C26.76 15 25.09 15.81 24 17.08C22.91 15.81 21.24 15 19.5 15C16.42 15 14 17.41 14 20.5C14 24.27 17.4 27.36 22.55 32.03L24 33.35L25.45 32.03C30.6 27.36 34 24.27 34 20.5C34 17.41 31.58 15 28.5 15Z" fill="#DC2626"/>
<rect width="48" height="48" rx="16" fill="#FEF9C3"/>
<g clip-path="url(#clip0_37_296)">
<path d="M24 34C29.523 34 34 29.523 34 24C34 18.477 29.523 14 24 14C18.477 14 14 18.477 14 24C14 29.523 18.477 34 24 34Z" stroke="#CA8A04" stroke-width="2.33333" stroke-linejoin="round"/>
<path d="M27.5 21V21.5M20.5 21V21.5M27.5 27.5C27.5 27.5 26.5 29.5 24 29.5C21.5 29.5 20.5 27.5 20.5 27.5" stroke="#CA8A04" stroke-width="2.33333" stroke-linecap="round" stroke-linejoin="round"/>
</g>
<rect width="48" height="48" rx="16" fill="#F3E8FF"/>
<path d="M33.25 24C33.25 26.4533 32.2754 28.806 30.5407 30.5407C28.806 32.2754 26.4533 33.25 24 33.25V34.75C29.937 34.75 34.75 29.937 34.75 24H33.25ZM24 33.25C21.5467 33.25 19.194 32.2754 17.4593 30.5407C15.7246 28.806 14.75 26.4533 14.75 24H13.25C13.25 29.937 18.063 34.75 24 34.75V33.25ZM14.75 24C14.75 21.5467 15.7246 19.194 17.4593 17.4593C19.194 15.7246 21.5467 14.75 24 14.75V13.25C18.063 13.25 13.25 18.063 13.25 24H14.75ZM27.5 26.25C25.975 26.25 24.5125 25.6442 23.4341 24.5659C22.3558 23.4875 21.75 22.025 21.75 20.5H20.25C20.25 22.4228 21.0138 24.2669 22.3735 25.6265C23.7331 26.9862 25.5772 27.75 27.5 27.75V26.25ZM32.425 23.469C31.9133 24.3176 31.191 25.0197 30.3281 25.5069C29.4652 25.9942 28.491 26.2501 27.5 26.25V27.75C28.7494 27.7504 29.9777 27.4279 31.0657 26.8138C32.1537 26.1997 33.0646 25.3148 33.71 24.245L32.425 23.469ZM21.75 20.5C21.7499 19.509 22.0058 18.5348 22.4931 17.6719C22.9803 16.809 23.6824 16.0867 24.531 15.575L23.755 14.291C22.6854 14.9363 21.8006 15.847 21.1865 16.9349C20.5724 18.0227 20.2498 19.2508 20.25 20.5H21.75ZM24 14.75C23.9497 14.749 23.9002 14.7381 23.8542 14.7179C23.8082 14.6976 23.7666 14.6684 23.732 14.632C23.6898 14.5897 23.6613 14.5357 23.65 14.477C23.646 14.446 23.648 14.356 23.755 14.291L24.531 15.575C25.034 15.271 25.196 14.714 25.137 14.276C25.075 13.821 24.717 13.25 24 13.25V14.75ZM33.71 24.245C33.644 24.352 33.554 24.354 33.523 24.35C33.4643 24.3387 33.4103 24.3102 33.368 24.268C33.3316 24.2334 33.3024 24.1918 33.2821 24.1458C33.2619 24.0998 33.251 24.0503 33.25 24H34.75C34.75 23.283 34.179 22.925 33.724 22.863C33.286 22.804 32.729 22.966 32.425 23.469L33.71 24.245Z" fill="#7C3AED"/>
<defs>
<clipPath id="clip0_37_296">
<rect width="24" height="24" fill="white" transform="translate(12 12)"/>
</clipPath>
</defs>
</svg>
