<svg width="56" height="56" viewBox="0 0 56 56" fill="none" xmlns="http://www.w3.org/2000/svg">
<rect width="56" height="56" rx="16" fill="#FFEDD5"/>
<path d="M28 16.3333C34.4435 16.3333 39.6667 21.5565 39.6667 28C39.6667 34.4435 34.4435 39.6667 28 39.6667C21.5565 39.6667 16.3333 34.4435 16.3333 28C16.3333 21.5565 21.5565 16.3333 28 16.3333ZM28 18.6667C25.5247 18.6667 23.1507 19.65 21.4003 21.4003C19.65 23.1507 18.6667 25.5246 18.6667 28C18.6667 30.4754 19.65 32.8493 21.4003 34.5997C23.1507 36.35 25.5247 37.3333 28 37.3333C30.4754 37.3333 32.8493 36.35 34.5997 34.5997C36.35 32.8493 37.3333 30.4754 37.3333 28C37.3333 25.5246 36.35 23.1507 34.5997 21.4003C32.8493 19.65 30.4754 18.6667 28 18.6667ZM28 31.5C28.3094 31.5 28.6062 31.6229 28.825 31.8417C29.0438 32.0605 29.1667 32.3573 29.1667 32.6667C29.1667 32.9761 29.0438 33.2728 28.825 33.4916C28.6062 33.7104 28.3094 33.8333 28 33.8333C27.6906 33.8333 27.3938 33.7104 27.1751 33.4916C26.9563 33.2728 26.8333 32.9761 26.8333 32.6667C26.8333 32.3573 26.9563 32.0605 27.1751 31.8417C27.3938 31.6229 27.6906 31.5 28 31.5ZM28 21C28.3094 21 28.6062 21.1229 28.825 21.3417C29.0438 21.5605 29.1667 21.8572 29.1667 22.1667V29.1667C29.1667 29.4761 29.0438 29.7728 28.825 29.9916C28.6062 30.2104 28.3094 30.3333 28 30.3333C27.6906 30.3333 27.3938 30.2104 27.1751 29.9916C26.9563 29.7728 26.8333 29.4761 26.8333 29.1667V22.1667C26.8333 21.8572 26.9563 21.5605 27.1751 21.3417C27.3938 21.1229 27.6906 21 28 21Z" fill="#EA580C"/>
</svg>
