<svg width="40" height="40" viewBox="0 0 40 40" fill="none" xmlns="http://www.w3.org/2000/svg">
<circle cx="20" cy="20" r="20" fill="#79E9C0"/>
<path d="M25.4799 14.52C25.7176 14.2324 26.0581 14.0488 26.429 14.0085C26.7999 13.9681 27.172 14.0742 27.4659 14.304C27.6102 14.4158 27.7307 14.5554 27.8202 14.7145C27.9097 14.8737 27.9663 15.0491 27.9869 15.2305C28.0074 15.412 27.9913 15.5956 27.9396 15.7707C27.8879 15.9458 27.8016 16.1088 27.6859 16.25L20.1659 25.49C20.0401 25.6427 19.8839 25.7676 19.7073 25.8568C19.5307 25.946 19.3375 25.9976 19.1399 26.0083C18.9424 26.019 18.7447 25.9886 18.5595 25.919C18.3743 25.8494 18.2055 25.7422 18.0639 25.604L12.4239 20.064L12.3259 19.96C11.8739 19.416 11.9059 18.614 12.4239 18.106C12.9419 17.598 13.7599 17.566 14.3139 18.01L14.4199 18.106L18.9599 22.546L25.4999 14.526L25.4799 14.52Z" fill="black"/>
<circle cx="20" cy="20" r="20" fill="#79E9C0"/>
<path d="M25.4799 14.52C25.7176 14.2324 26.0581 14.0488 26.429 14.0085C26.7999 13.9681 27.172 14.0742 27.4659 14.304C27.6102 14.4158 27.7307 14.5554 27.8202 14.7145C27.9097 14.8737 27.9663 15.0491 27.9869 15.2305C28.0074 15.412 27.9913 15.5956 27.9396 15.7707C27.8879 15.9458 27.8016 16.1088 27.6859 16.25L20.1659 25.49C20.0401 25.6427 19.8839 25.7676 19.7073 25.8568C19.5307 25.946 19.3375 25.9976 19.1399 26.0083C18.9424 26.019 18.7447 25.9886 18.5595 25.919C18.3743 25.8494 18.2055 25.7422 18.0639 25.604L12.4239 20.064L12.3259 19.96C11.8739 19.416 11.9059 18.614 12.4239 18.106C12.9419 17.598 13.7599 17.566 14.3139 18.01L14.4199 18.106L18.9599 22.546L25.4999 14.526L25.4799 14.52Z" fill="black"/>
<rect width="40" height="40" rx="16" fill="#DBEAFE"/>
<path d="M25.625 22.5C25.625 25.952 23.452 28.125 20 28.125C16.548 28.125 14.375 25.952 14.375 22.5C14.375 18.7957 18.4074 13.7949 19.6441 12.3484C19.6881 12.297 19.7428 12.2558 19.8042 12.2275C19.8657 12.1992 19.9325 12.1846 20.0002 12.1846C20.0679 12.1846 20.1347 12.1992 20.1962 12.2275C20.2576 12.2558 20.3122 12.297 20.3562 12.3484C21.5926 13.7949 25.625 18.7957 25.625 22.5Z" stroke="#0891B2" stroke-width="1.25" stroke-miterlimit="10"/>
<path d="M23.4375 22.8125C23.4375 23.5584 23.1412 24.2738 22.6137 24.8012C22.0863 25.3287 21.3709 25.625 20.625 25.625" stroke="#0891B2" stroke-width="1.25" stroke-linecap="round" stroke-linejoin="round"/>
</svg>
