<svg width="40" height="40" viewBox="0 0 40 40" fill="none" xmlns="http://www.w3.org/2000/svg">
<circle cx="20" cy="20" r="20" fill="#79E9C0"/>
<path d="M25.4799 14.52C25.7176 14.2324 26.0581 14.0488 26.429 14.0085C26.7999 13.9681 27.172 14.0742 27.4659 14.304C27.6102 14.4158 27.7307 14.5554 27.8202 14.7145C27.9097 14.8737 27.9663 15.0491 27.9869 15.2305C28.0074 15.412 27.9913 15.5956 27.9396 15.7707C27.8879 15.9458 27.8016 16.1088 27.6859 16.25L20.1659 25.49C20.0401 25.6427 19.8839 25.7676 19.7073 25.8568C19.5307 25.946 19.3375 25.9976 19.1399 26.0083C18.9424 26.019 18.7447 25.9886 18.5595 25.919C18.3743 25.8494 18.2055 25.7422 18.0639 25.604L12.4239 20.064L12.3259 19.96C11.8739 19.416 11.9059 18.614 12.4239 18.106C12.9419 17.598 13.7599 17.566 14.3139 18.01L14.4199 18.106L18.9599 22.546L25.4999 14.526L25.4799 14.52Z" fill="black"/>
<rect width="40" height="40" rx="16" fill="#DBEAFE"/>
<path fill-rule="evenodd" clip-rule="evenodd" d="M18.7501 13.3333C18.462 13.3332 18.1828 13.4326 17.9596 13.6147C17.7364 13.7967 17.5829 14.0503 17.5251 14.3325C17.5032 14.4397 17.4605 14.5416 17.3993 14.6324C17.3381 14.7231 17.2596 14.8009 17.1683 14.8613C17.0771 14.9217 16.9748 14.9635 16.8673 14.9844C16.7599 15.0052 16.6494 15.0047 16.5422 14.9829C16.4349 14.9611 16.333 14.9183 16.2423 14.8571C16.1516 14.7959 16.0738 14.7174 16.0134 14.6262C15.953 14.5349 15.9112 14.4326 15.8903 14.3252C15.8694 14.2177 15.8699 14.1072 15.8917 14C16.0021 13.4593 16.2636 12.961 16.6459 12.563C17.0281 12.165 17.5155 11.8836 18.0513 11.7515C18.5871 11.6194 19.1494 11.642 19.6728 11.8167C20.1963 11.9914 20.6595 12.311 21.0085 12.7384C21.3576 13.1659 21.5782 13.6835 21.6448 14.2314C21.7114 14.7792 21.6212 15.3346 21.3847 15.8333C21.1483 16.3319 20.7752 16.7531 20.3088 17.0482C19.8424 17.3432 19.3019 17.4999 18.7501 17.5H14.1667C13.9457 17.5 13.7338 17.4122 13.5775 17.2559C13.4212 17.0996 13.3334 16.8877 13.3334 16.6667C13.3334 16.4456 13.4212 16.2337 13.5775 16.0774C13.7338 15.9211 13.9457 15.8333 14.1667 15.8333H18.7501C19.0816 15.8333 19.3995 15.7016 19.634 15.4672C19.8684 15.2328 20.0001 14.9148 20.0001 14.5833C20.0001 14.2518 19.8684 13.9339 19.634 13.6994C19.3995 13.465 19.0816 13.3333 18.7501 13.3333ZM25.4167 16.6667C25.1287 16.6666 24.8495 16.7659 24.6262 16.948C24.403 17.1301 24.2495 17.3836 24.1917 17.6658C24.17 17.7731 24.1273 17.875 24.0661 17.9657C24.005 18.0565 23.9265 18.1343 23.8353 18.1947C23.7441 18.2552 23.6418 18.297 23.5344 18.318C23.427 18.3389 23.3165 18.3384 23.2092 18.3167C23.102 18.2949 23.0001 18.2522 22.9093 18.191C22.8186 18.1299 22.7408 18.0514 22.6803 17.9602C22.6199 17.869 22.578 17.7667 22.5571 17.6593C22.5362 17.5519 22.5366 17.4414 22.5584 17.3342C22.6686 16.7934 22.93 16.295 23.3122 15.8968C23.6944 15.4987 24.1817 15.2172 24.7175 15.0849C25.2534 14.9527 25.8157 14.9752 26.3392 15.1499C26.8628 15.3245 27.326 15.6441 27.6752 16.0715C28.0243 16.4989 28.245 17.0166 28.3116 17.5645C28.3783 18.1123 28.2881 18.6679 28.0516 19.1665C27.8151 19.6652 27.442 20.0865 26.9756 20.3815C26.5092 20.6766 25.9686 20.8332 25.4167 20.8333H12.5001C12.2791 20.8333 12.0671 20.7455 11.9108 20.5892C11.7545 20.433 11.6667 20.221 11.6667 20C11.6667 19.779 11.7545 19.567 11.9108 19.4107C12.0671 19.2545 12.2791 19.1667 12.5001 19.1667H25.4167C25.7483 19.1667 26.0662 19.035 26.3006 18.8005C26.5351 18.5661 26.6667 18.2482 26.6667 17.9167C26.6667 17.5851 26.5351 17.2672 26.3006 17.0328C26.0662 16.7984 25.7483 16.6667 25.4167 16.6667ZM20.8584 25.6675C20.9059 25.8991 21.018 26.1126 21.1819 26.283C21.3458 26.4535 21.5547 26.574 21.7843 26.6305C22.014 26.687 22.2549 26.6772 22.4792 26.6022C22.7034 26.5273 22.9018 26.3903 23.0514 26.2071C23.2009 26.0239 23.2954 25.802 23.3239 25.5673C23.3524 25.3325 23.3137 25.0945 23.2123 24.8809C23.111 24.6673 22.9511 24.4867 22.7513 24.3603C22.5515 24.2339 22.3199 24.1667 22.0834 24.1667H16.6667C16.4457 24.1667 16.2338 24.0789 16.0775 23.9226C15.9212 23.7663 15.8334 23.5543 15.8334 23.3333C15.8334 23.1123 15.9212 22.9003 16.0775 22.7441C16.2338 22.5878 16.4457 22.5 16.6667 22.5H22.0834C22.6353 22.5001 23.1759 22.6567 23.6423 22.9518C24.1087 23.2468 24.4818 23.6681 24.7183 24.1668C24.9548 24.6655 25.045 25.221 24.9783 25.7688C24.9117 26.3167 24.691 26.8344 24.3418 27.2618C23.9927 27.6892 23.5294 28.0088 23.0059 28.1835C22.4824 28.3581 21.92 28.3806 21.3842 28.2484C20.8484 28.1162 20.3611 27.8346 19.9789 27.4365C19.5967 27.0383 19.3353 26.5399 19.2251 25.9992C19.1811 25.7826 19.225 25.5574 19.347 25.3731C19.4691 25.1889 19.6593 25.0606 19.8759 25.0167C20.0925 24.9727 20.3177 25.0165 20.502 25.1386C20.6862 25.2606 20.8144 25.4509 20.8584 25.6675Z" fill="#2563EB"/>
</svg>
